<svg id="Layer_1" data-name="Layer 1" xmlns="http://www.w3.org/2000/svg" viewBox="0 0 4535.43 2551.18"><rect x="1610.27" y="1321.94" width="576" height="576" style="fill:#d1d3d4"/><rect x="2330.27" y="1321.94" width="576" height="576" style="fill:#d1d3d4"/><rect x="3050.27" y="1321.94" width="576" height="576" style="fill:#d1d3d4"/><rect x="3770.27" y="1321.94" width="576" height="576" style="fill:#d1d3d4"/><rect x="890.57" y="1321.23" width="576" height="576" style="fill:#d1d3d4"/><rect x="170.57" y="1321.23" width="576" height="576" style="fill:#d1d3d4"/><text transform="translate(105.89 1984.4)" style="font-size:60px;fill:#1d1d1b;font-family:TimesNewRomanPS-ItalicMT, Times New Roman;font-style:italic">Base p<tspan x="161.63" y="0" style="letter-spacing:-0.037109375em">r</tspan><tspan x="182.75" y="0" xml:space="preserve">ofile polygonal SDF  </tspan><tspan x="317.58" y="72">f0 </tspan><tspan x="299.69" y="144">(a)</tspan></text><text transform="translate(901.63 1984.4)" style="font-size:60px;fill:#1d1d1b;font-family:TimesNewRomanPS-ItalicMT, Times New Roman;font-style:italic">Offset polygonal SDF <tspan x="-43.07" y="72">f1 = f0 + 0.5 * print width</tspan><tspan x="226.66" y="144">(b)</tspan></text><text transform="translate(1751.85 1984.4)" style="font-size:60px;fill:#1d1d1b;font-family:TimesNewRomanPS-ItalicMT, Times New Roman;font-style:italic">Brace SDF <tspan x="117.03" y="72">f2</tspan><tspan x="100.83" y="144">(c)</tspan></text><text transform="translate(2489.47 1984.4)" style="font-size:60px;fill:#1d1d1b;font-family:TimesNewRomanPS-ItalicMT, Times New Roman;font-style:italic"><tspan style="letter-spacing:-0.05517578125em">T</tspan><tspan x="30.06" y="0">rim SDF</tspan><tspan x="-246.46" y="72">f3 = line SDF at pattern points</tspan><tspan x="84.21" y="144">(d)</tspan></text><text transform="translate(3168.9 1984.4)" style="font-size:60px;fill:#1d1d1b;font-family:TimesNewRomanPS-ItalicMT, Times New Roman;font-style:italic">Boolean SDF<tspan x="50.95" y="72">f4 = f1 - f2</tspan><tspan x="129.17" y="144">(e)</tspan></text><text transform="translate(3759.11 1984.4)" style="font-size:60px;fill:#1d1d1b;font-family:TimesNewRomanPS-ItalicMT, Times New Roman;font-style:italic">Resaultant boolean SDF<tspan x="183.44" y="72">f5 = f4 - f3</tspan><tspan x="266.65" y="144">(f)</tspan></text><path d="M1193.48,1561.22a6,6,0,0,0,1.17,3.62A6,6,0,0,1,1193.48,1561.22Z" style="fill:#00aeef;stroke:#ec008c;stroke-linecap:round;stroke-linejoin:round;stroke-width:10px"/><path d="M1937.67,1622.58c-4.45-1-5.88-3.25-4.88-7.7,0-.18.08-.37.13-.55,1-4.45,3.25-5.88,7.69-4.88l195.89,44c4.45,1,5.87,3.25,4.87,7.7-.06.28-.12.57-.19.86-1,4.45-3.25,5.88-7.7,4.88Z" style="fill:#00aeef;stroke:#ec008c;stroke-linecap:round;stroke-linejoin:round;stroke-width:10px"/><path d="M1928.7,1653.21c-2.45-3.84-1.88-6.44,2-8.9l.75-.48c3.84-2.46,6.44-1.89,8.9,2L2047,1812.17c2.46,3.84,1.89,6.45-2,8.91l-.62.67c-3.84,2.46-6.44,1.89-8.9-2Q1982.08,1736.51,1928.7,1653.21Z" style="fill:#00aeef;stroke:#ec008c;stroke-linecap:round;stroke-linejoin:round;stroke-width:10px"/><path d="M2688.5,1551l1.9,24.44c.29,3.75,2,5.18,5.72,4.89l.73-.06c3.75-.29,5.19-2,4.89-5.72l-1.89-24.4c-.3-3.75-2-5.18-5.72-4.89l-.74,0C2689.64,1545.56,2688.21,1547.24,2688.5,1551Z" style="fill:#00aeef;stroke:#ec008c;stroke-linecap:round;stroke-linejoin:round;stroke-width:10px"/><path d="M2702,1757.26c-3.17,2-5.33,1.56-7.36-1.61l-.39-.61c-2-3.17-1.56-5.33,1.61-7.36l20.63-13.22c3.17-2,5.33-1.56,7.36,1.61l.36.64c2,3.16,1.56,5.32-1.61,7.35Z" style="fill:#00aeef;stroke:#ec008c;stroke-linecap:round;stroke-linejoin:round;stroke-width:10px"/><path d="M2766.23,1654c-.69,3.69-2.51,4.94-6.21,4.24l-.72-.13c-3.7-.7-4.94-2.52-4.25-6.22q2.26-12,4.54-24.09c.69-3.69,2.51-4.94,6.21-4.24l.72.17c3.69.7,4.94,2.52,4.24,6.22Z" style="fill:#00aeef;stroke:#ec008c;stroke-linecap:round;stroke-linejoin:round;stroke-width:10px"/><path d="M1193.48,1561.22q-1.05-80.58-2.08-161.15c-.06-4.56,1.8-6.47,6.36-6.52l31.38-.38c3.34,0,5,1.14,6.15,4.28q29.28,82.23,58.55,164.47a6.25,6.25,0,0,0,1.46,2.33l93.27,95.74c2.6,2.67,2.82,4.89.79,8l-82.8,127.18a5.7,5.7,0,0,1-5.38,2.92l-298.29,1c-3.57,0-5.28-1.29-6.23-4.73q-15.84-57.27-31.67-114.55a6.44,6.44,0,0,1,6.26-8.16l250.1,1.77c4.59,0,6.5-1.86,6.48-6.46q-.07-26.57-.16-53.12a6.11,6.11,0,0,0-1.18-3.69q-15.91-22.65-31.84-45.31" style="fill:#00aeef;stroke:#ec008c;stroke-linecap:round;stroke-linejoin:round;stroke-width:10px"/><path d="M469,1382.46c-.06-4.56,1.8-6.47,6.36-6.52l55-.66c3.34,0,5,1.14,6.14,4.28Q567,1465,597.39,1550.46a6.15,6.15,0,0,0,1.45,2.33l98.86,101.48c2.61,2.67,2.82,4.89.79,8q-46.43,71.34-92.86,142.66a5.7,5.7,0,0,1-5.38,2.92l-316.25,1c-3.57,0-5.28-1.28-6.23-4.72l-39.34-142.26a6.44,6.44,0,0,1,6.26-8.16l254.42,1.8c4.59,0,6.5-1.87,6.49-6.46l-.12-34.88a6,6,0,0,0-1.17-3.68l-31.8-45.25a6.11,6.11,0,0,1-1.17-3.62Z" style="fill:#00aeef;stroke:#ec008c;stroke-linecap:round;stroke-linejoin:round;stroke-width:10px"/><polygon points="3432.18 1763.08 3408.48 1725.96 3407.62 1724.6 3407 1723.64 3405.52 1721.32 3405.31 1720.99 3404.05 1719 3403.01 1717.38 3402.56 1716.68 3401.08 1714.36 3400.71 1713.78 3399.6 1712.04 3398.4 1710.17 3398.12 1709.72 3396.64 1707.4 3396.1 1706.56 3395.16 1705.08 3393.8 1702.95 3393.68 1702.76 3392.2 1700.44 3391.5 1699.34 3390.72 1698.12 3389.24 1695.81 3389.2 1695.74 3387.76 1693.48 3386.89 1692.13 3386.28 1691.17 3384.8 1688.85 3384.59 1688.52 3383.32 1686.53 3382.29 1684.91 3381.84 1684.21 3380.36 1681.89 3379.99 1681.3 3378.88 1679.57 3377.69 1677.69 3377.39 1677.25 3375.59 1674.93 3375.39 1674.74 3373.11 1673.63 3370.84 1673.39 3368.57 1673.36 3366.3 1673.34 3364.03 1673.32 3361.76 1673.3 3359.49 1673.27 3357.22 1673.25 3354.95 1673.23 3352.68 1673.21 3350.41 1673.18 3348.14 1673.16 3345.87 1673.14 3343.6 1673.12 3341.33 1673.1 3339.06 1673.07 3336.79 1673.05 3334.52 1673.03 3332.25 1673.01 3331.63 1673 3329.98 1672.98 3327.71 1672.96 3325.44 1672.94 3323.17 1672.92 3320.9 1672.89 3318.63 1672.87 3316.36 1672.85 3314.09 1672.83 3311.82 1672.81 3309.55 1672.78 3307.28 1672.76 3305.01 1672.74 3302.74 1672.72 3300.47 1672.7 3298.2 1672.67 3295.93 1672.65 3293.66 1672.63 3291.39 1672.61 3289.12 1672.58 3286.85 1672.56 3284.58 1672.54 3282.31 1672.52 3280.04 1672.49 3277.77 1672.47 3275.5 1672.45 3273.23 1672.43 3270.96 1672.41 3268.69 1672.38 3266.42 1672.36 3264.15 1672.34 3261.88 1672.32 3259.61 1672.29 3257.34 1672.27 3255.07 1672.25 3252.8 1672.23 3250.53 1672.2 3248.26 1672.18 3245.99 1672.16 3243.72 1672.14 3241.45 1672.12 3239.18 1672.09 3236.91 1672.07 3234.64 1672.05 3232.37 1672.03 3230.1 1672.01 3227.83 1671.98 3225.56 1671.96 3223.29 1671.94 3221.02 1671.91 3218.75 1671.89 3216.48 1671.87 3214.21 1671.85 3211.94 1671.83 3209.68 1671.81 3207.96 1671.79 3207.4 1671.78 3205.13 1671.76 3202.86 1671.74 3200.59 1671.71 3198.32 1671.69 3196.05 1671.67 3193.78 1671.65 3191.51 1671.63 3189.24 1671.61 3186.97 1671.58 3184.7 1671.56 3182.43 1671.54 3180.16 1671.52 3177.89 1671.49 3175.62 1671.47 3173.35 1671.45 3171.08 1671.43 3168.81 1671.4 3166.54 1671.38 3164.27 1671.36 3162.01 1671.34 3159.74 1671.32 3157.47 1671.3 3155.19 1671.27 3152.92 1671.25 3150.66 1671.23 3148.38 1671.2 3146.11 1671.18 3143.84 1671.16 3141.57 1671.14 3139.3 1671.12 3137.03 1671.09 3134.77 1671.07 3132.49 1671.05 3130.22 1671.03 3127.95 1671.09 3125.69 1671.47 3124.11 1672.55 3123.82 1674.88 3124.28 1677.21 3124.91 1679.54 3125.56 1681.87 3125.79 1682.71 3126.21 1684.19 3126.85 1686.52 3127.49 1688.85 3128.14 1691.17 3128.78 1693.5 3129.43 1695.83 3130.07 1698.16 3130.48 1699.64 3130.72 1700.48 3131.36 1702.81 3132.01 1705.13 3132.65 1707.46 3132.83 1708.11 3133.3 1709.79 3133.94 1712.12 3134.58 1714.44 3135.18 1716.58 3135.23 1716.77 3135.87 1719.1 3136.52 1721.42 3137.16 1723.75 3137.53 1725.05 3137.81 1726.08 3138.45 1728.4 3139.09 1730.73 3139.74 1733.06 3139.87 1733.52 3140.39 1735.38 3141.03 1737.71 3141.68 1740.04 3142.21 1741.99 3142.32 1742.37 3142.97 1744.69 3143.61 1747.02 3144.26 1749.35 3144.56 1750.45 3144.9 1751.67 3145.55 1754 3146.19 1756.33 3146.84 1758.65 3146.91 1758.92 3147.48 1760.98 3148.12 1763.31 3148.77 1765.63 3149.26 1767.39 3149.41 1767.96 3150.06 1770.29 3150.7 1772.62 3151.35 1774.94 3151.6 1775.86 3152 1777.27 3152.64 1779.6 3153.28 1781.92 3153.93 1784.25 3153.95 1784.33 3154.57 1786.58 3155.22 1788.9 3155.86 1791.23 3156.29 1792.8 3156.51 1793.56 3157.19 1795.88 3158.22 1798.21 3158.62 1798.74 3160.9 1799.93 3163.17 1800.15 3165.44 1800.16 3167.71 1800.16 3169.98 1800.16 3172.25 1800.16 3174.52 1800.16 3176.79 1800.16 3179.06 1800.16 3181.33 1800.16 3183.6 1800.16 3185.87 1800.16 3188.14 1800.16 3190.41 1800.16 3192.68 1800.16 3194.95 1800.16 3197.22 1800.16 3199.48 1800.16 3200.45 1800.16 3201.76 1800.16 3204.03 1800.16 3206.3 1800.16 3208.57 1800.16 3210.84 1800.16 3213.11 1800.16 3215.37 1800.16 3217.65 1800.16 3219.92 1800.16 3222.18 1800.16 3224.46 1800.16 3226.72 1800.16 3228.99 1800.16 3231.26 1800.16 3233.53 1800.16 3235.8 1800.15 3238.07 1800.15 3240.34 1800.15 3242.61 1800.16 3244.88 1800.15 3247.15 1800.15 3249.42 1800.15 3251.69 1800.15 3253.96 1800.15 3256.23 1800.15 3258.5 1800.15 3260.77 1800.15 3263.04 1800.15 3265.31 1800.15 3267.58 1800.15 3269.85 1800.15 3272.12 1800.15 3274.39 1800.15 3276.66 1800.15 3278.93 1800.15 3281.2 1800.15 3283.47 1800.15 3285.74 1800.15 3288.01 1800.15 3290.28 1800.15 3292.55 1800.15 3294.81 1800.15 3297.09 1800.15 3299.35 1800.15 3301.63 1800.15 3303.9 1800.15 3306.16 1800.15 3308.44 1800.15 3310.7 1800.15 3312.97 1800.15 3315.24 1800.15 3317.51 1800.15 3319.78 1800.15 3322.05 1800.15 3324.32 1800.14 3326.59 1800.15 3328.86 1800.14 3331.13 1800.14 3333.4 1800.15 3335.67 1800.14 3337.94 1800.14 3340.21 1800.14 3342.48 1800.14 3344.75 1800.14 3347.02 1800.14 3349.29 1800.14 3351.56 1800.14 3353.83 1800.14 3356.1 1800.14 3358.37 1800.14 3360.64 1800.14 3362.91 1800.14 3365.18 1800.14 3367.45 1800.14 3369.72 1800.14 3371.99 1800.14 3374.26 1800.14 3376.53 1800.14 3378.79 1800.14 3381.07 1800.14 3383.33 1800.14 3385.61 1800.14 3387.88 1800.14 3390.14 1800.14 3392.42 1800.14 3394.68 1800.14 3396.95 1800.14 3399.22 1800.14 3401.49 1800.14 3403.77 1800.14 3406.03 1800.14 3408.3 1800.14 3410.58 1800.14 3412.84 1800.14 3415.11 1800.14 3417.38 1800.14 3419.65 1800.14 3421.92 1800.14 3424.19 1800.14 3426.46 1800.14 3428.73 1800.14 3431 1800.14 3433.27 1800.14 3435.54 1800.14 3437.81 1800.13 3440.08 1800.13 3442.35 1800.13 3444.62 1800.13 3446.89 1800.13 3449.16 1800.1 3451.42 1799.7 3453.51 1797.86 3452.74 1795.54 3451.41 1793.22 3451.36 1793.15 3449.93 1790.9 3449.06 1789.54 3448.45 1788.58 3446.97 1786.26 3446.76 1785.93 3445.49 1783.94 3444.46 1782.33 3444 1781.62 3442.53 1779.3 3442.15 1778.72 3441.05 1776.98 3439.85 1775.11 3439.56 1774.66 3438.09 1772.35 3437.55 1771.5 3436.61 1770.03 3435.25 1767.89 3435.13 1767.7 3433.65 1765.39 3432.95 1764.29 3432.18 1763.08" style="fill:#00aeef;stroke:#ec008c;stroke-linecap:round;stroke-linejoin:round;stroke-width:10px"/><polygon points="3506.72 1653.4 3506.84 1653.42 3509.11 1653.94 3511.39 1654.45 3513.66 1654.97 3513.89 1655.02 3515.94 1655.48 3518.21 1655.99 3520.49 1656.51 3522.76 1657.02 3523.82 1657.26 3525.04 1657.54 3527.31 1658.05 3529.59 1658.57 3531.86 1659.08 3533.73 1659.51 3534.13 1659.59 3536.41 1660.11 3538.68 1660.62 3540.96 1661.14 3543.23 1661.65 3543.66 1661.75 3545.51 1662.24 3547.78 1663.2 3548.86 1664.03 3549.03 1666.37 3547.86 1668.71 3547.83 1668.75 3546.37 1671.05 3545.6 1672.28 3544.89 1673.4 3543.4 1675.74 3543.36 1675.82 3541.92 1678.09 3541.12 1679.35 3540.43 1680.44 3538.94 1682.78 3538.88 1682.88 3537.46 1685.13 3536.65 1686.41 3535.97 1687.48 3534.49 1689.82 3534.41 1689.94 3533 1692.17 3532.17 1693.47 3531.51 1694.52 3530.02 1696.86 3529.93 1697 3528.54 1699.21 3527.7 1700.54 3527.05 1701.55 3525.57 1703.9 3525.46 1704.07 3524.08 1706.25 3523.22 1707.6 3522.59 1708.59 3521.11 1710.94 3520.98 1711.13 3519.62 1713.29 3518.74 1714.66 3518.13 1715.63 3516.65 1717.98 3516.51 1718.2 3515.16 1720.33 3514.27 1721.73 3513.67 1722.67 3512.19 1725.02 3512.03 1725.26 3510.7 1727.36 3509.79 1728.79 3509.22 1729.71 3507.72 1732.06 3507.55 1732.32 3506.24 1734.4 3505.32 1735.86 3504.76 1736.75 3503.27 1739.09 3503.08 1739.39 3501.78 1741.44 3500.84 1742.92 3500.29 1743.79 3498.81 1746.13 3498.6 1746.45 3497.32 1748.48 3496.37 1749.98 3495.84 1750.83 3494.35 1753.17 3494.13 1753.52 3492.86 1755.52 3491.89 1757.05 3491.37 1757.86 3489.89 1760.21 3489.65 1760.58 3488.4 1762.56 3487.42 1764.11 3486.92 1764.9 3485.43 1767.25 3485.18 1767.64 3483.94 1769.6 3482.94 1771.17 3482.46 1771.94 3480.97 1774.29 3480.7 1774.71 3479.48 1776.63 3478.47 1778.24 3477.99 1778.98 3476.51 1781.33 3476.23 1781.77 3475.02 1783.67 3473.99 1785.3 3473.54 1786.02 3472.05 1788.37 3471.75 1788.83 3470.3 1790.71 3469.51 1791.75 3467.25 1792.32 3465.28 1790.76 3464.96 1790.5 3463.65 1788.44 3462.65 1786.89 3462.16 1786.12 3460.68 1783.8 3460.35 1783.28 3459.21 1781.48 3458.05 1779.67 3457.72 1779.16 3456.24 1776.85 3455.75 1776.07 3454.76 1774.53 3453.45 1772.46 3453.28 1772.2 3451.81 1769.89 3451.14 1768.85 3450.32 1767.57 3421.21 1721.95 3420.72 1721.18 3419.24 1718.86 3418.91 1718.34 3417.76 1716.54 3416.61 1714.73 3416.28 1714.22 3414.8 1711.9 3414.31 1711.12 3413.32 1709.58 3412 1707.52 3411.84 1707.26 3410.36 1704.94 3409.7 1703.91 3408.88 1702.63 3407.4 1700.31 3407.4 1700.3 3405.92 1697.99 3405.09 1696.69 3404.44 1695.67 3402.96 1693.35 3402.79 1693.09 3401.48 1691.03 3400.49 1689.48 3400 1688.71 3398.52 1686.39 3398.19 1685.87 3397.04 1684.07 3395.88 1682.26 3395.56 1681.75 3394.08 1679.43 3393.58 1678.65 3392.6 1677.11 3391.28 1675.05 3391.12 1674.79 3389.64 1672.47 3388.98 1671.44 3388.16 1670.15 3387.01 1667.83 3386.66 1665.59 3386.64 1665.5 3386.65 1665.38 3386.84 1663.17 3387.16 1660.83 3387.24 1658.5 3387.22 1656.17 3387.2 1653.83 3387.18 1651.5 3387.16 1649.17 3387.14 1646.84 3387.11 1644.5 3387.09 1642.17 3387.07 1639.84 3387.05 1637.51 3387.03 1635.17 3387.03 1632.84 3387.15 1630.51 3387.99 1628.17 3388.58 1627.64 3390.85 1627.36 3393.12 1627.71 3394.84 1628.1 3395.39 1628.23 3397.67 1628.74 3399.94 1629.26 3402.22 1629.77 3404.49 1630.29 3404.76 1630.35 3406.76 1630.8 3409.04 1631.32 3411.32 1631.83 3413.59 1632.34 3414.68 1632.59 3415.86 1632.86 3418.14 1633.37 3420.41 1633.88 3422.69 1634.4 3424.6 1634.83 3424.96 1634.91 3427.24 1635.43 3429.51 1635.94 3431.79 1636.46 3434.06 1636.97 3434.52 1637.08 3436.34 1637.48 3438.61 1638 3440.88 1638.51 3443.16 1639.03 3444.44 1639.32 3445.43 1639.54 3447.71 1640.06 3449.98 1640.57 3452.26 1641.08 3454.37 1641.56 3454.53 1641.6 3456.8 1642.11 3459.08 1642.63 3506.72 1653.4" style="fill:#00aeef;stroke:#ec008c;stroke-linecap:round;stroke-linejoin:round;stroke-width:10px"/><polygon points="3389.08 1557.78 3435.57 1553.74 3437.84 1553.54 3440.11 1553.34 3442.38 1553.14 3443.93 1553.01 3444.65 1552.94 3446.91 1552.58 3449.17 1551.33 3449.66 1550.63 3449.58 1548.29 3449.13 1546.86 3448.86 1545.97 3448.03 1543.64 3447.19 1541.32 3446.8 1540.25 3446.35 1538.99 3445.5 1536.67 3444.67 1534.34 3444.47 1533.81 3443.82 1532.02 3442.99 1529.69 3442.14 1527.37 3442.14 1527.37 3441.3 1525.04 3440.46 1522.72 3439.82 1520.93 3439.62 1520.39 3438.78 1518.06 3437.94 1515.74 3437.49 1514.5 3437.1 1513.41 3436.26 1511.09 3435.41 1508.77 3435.16 1508.06 3434.58 1506.44 3433.74 1504.12 3432.89 1501.79 3432.83 1501.62 3432.05 1499.46 3431.22 1497.14 3430.5 1495.18 3430.37 1494.82 3429.53 1492.49 3428.69 1490.16 3428.18 1488.75 3427.85 1487.84 3427.01 1485.51 3426.17 1483.19 3425.85 1482.31 3425.32 1480.86 3424.48 1478.54 3423.64 1476.21 3423.52 1475.87 3422.8 1473.89 3421.97 1471.56 3421.19 1469.43 3421.12 1469.24 3420.28 1466.91 3419.44 1464.59 3418.86 1462.99 3418.6 1462.26 3417.76 1459.94 3416.92 1457.61 3416.54 1456.56 3416.08 1455.29 3415.24 1452.96 3414.4 1450.64 3414.2 1450.12 3413.55 1448.31 3412.71 1445.99 3411.88 1443.68 3411.87 1443.66 3411.03 1441.34 3410.19 1439.01 3409.55 1437.24 3409.35 1436.68 3408.51 1434.36 3407.67 1432.04 3407.22 1430.81 3406.83 1429.71 3405.99 1427.38 3405.15 1425.06 3404.89 1424.37 3404.3 1422.73 3403.46 1420.41 3402.63 1418.09 3402.57 1417.93 3401.79 1415.76 3400.94 1413.43 3400.24 1411.49 3400.1 1411.11 3399.26 1408.78 3398.42 1406.46 3397.91 1405.06 3397.58 1404.13 3396.74 1401.81 3395.9 1399.48 3395.58 1398.62 3395.02 1397.16 3393.78 1394.84 3393.28 1394.26 3390.99 1393.24 3388.72 1393.08 3386.45 1393.1 3384.18 1393.13 3381.92 1393.16 3379.65 1393.18 3377.38 1393.21 3375.11 1393.24 3372.84 1393.27 3370.57 1393.3 3368.3 1393.33 3366.03 1393.36 3363.76 1393.38 3361.49 1393.41 3359.22 1393.44 3356.95 1393.47 3354.68 1393.54 3352.41 1393.88 3350.37 1395.23 3350.16 1395.74 3349.77 1397.57 3349.7 1399.9 3349.74 1402.23 3349.78 1404.57 3349.82 1406.9 3349.86 1409.23 3349.9 1411.56 3349.94 1413.9 3349.98 1416.23 3350.01 1418.56 3350.06 1420.89 3350.1 1423.23 3350.13 1425.56 3350.17 1427.89 3350.21 1430.22 3350.25 1432.56 3350.29 1434.89 3350.33 1437.22 3350.37 1439.55 3350.41 1441.88 3350.45 1444.22 3350.49 1446.55 3350.53 1448.88 3350.57 1451.21 3350.61 1453.55 3350.64 1455.88 3350.68 1458.21 3350.73 1460.55 3350.76 1462.88 3350.78 1463.61 3350.8 1465.21 3350.84 1467.54 3350.88 1469.87 3350.92 1472.21 3350.96 1474.54 3351 1476.87 3351.04 1479.2 3351.08 1481.54 3351.12 1483.87 3351.16 1486.2 3351.2 1488.53 3351.24 1490.87 3351.28 1493.2 3351.32 1495.53 3351.36 1497.86 3351.4 1500.19 3351.43 1502.53 3351.48 1504.86 3351.52 1507.19 3351.56 1509.53 3351.59 1511.86 3351.63 1514.19 3351.67 1516.52 3351.71 1518.86 3351.75 1521.19 3351.79 1523.52 3351.83 1525.85 3351.87 1528.18 3351.91 1530.52 3351.95 1532.85 3351.99 1535.18 3352.03 1537.52 3352.07 1539.85 3352.11 1542.18 3352.15 1544.51 3352.19 1546.84 3352.23 1549.18 3352.27 1551.51 3352.3 1553.84 3352.41 1556.17 3352.89 1558.5 3353.92 1559.84 3356.2 1560.49 3358.47 1560.43 3360.73 1560.25 3363 1560.05 3365.27 1559.85 3367.53 1559.65 3369.8 1559.46 3372.07 1559.26 3374.34 1559.06 3376.61 1558.87 3378.88 1558.67 3381.14 1558.47 3383.41 1558.27 3384.05 1558.22 3385.68 1558.08 3387.95 1557.88 3389.08 1557.78" style="fill:#00aeef;stroke:#ec008c;stroke-linecap:round;stroke-linejoin:round;stroke-width:10px"/><polygon points="3856.21 1682.71 3856.63 1684.19 3857.27 1686.52 3857.91 1688.85 3858.56 1691.17 3859.2 1693.5 3859.85 1695.83 3860.49 1698.16 3860.91 1699.64 3861.14 1700.48 3861.78 1702.81 3862.43 1705.13 3863.07 1707.46 3863.25 1708.11 3863.72 1709.79 3864.36 1712.12 3865 1714.44 3865.6 1716.58 3865.65 1716.77 3866.3 1719.1 3866.94 1721.42 3867.59 1723.75 3867.95 1725.05 3868.23 1726.08 3868.87 1728.4 3869.52 1730.73 3870.16 1733.06 3870.29 1733.52 3870.81 1735.38 3871.45 1737.71 3872.1 1740.04 3872.64 1741.99 3872.74 1742.37 3873.39 1744.69 3874.03 1747.02 3874.68 1749.35 3874.99 1750.45 3875.32 1751.67 3875.97 1754 3876.61 1756.33 3877.26 1758.65 3877.33 1758.92 3877.9 1760.98 3878.55 1763.31 3879.19 1765.63 3879.68 1767.39 3879.83 1767.96 3880.48 1770.29 3881.13 1772.62 3881.77 1774.94 3882.03 1775.86 3882.42 1777.27 3883.06 1779.6 3883.7 1781.92 3884.35 1784.25 3884.37 1784.33 3885 1786.58 3885.64 1788.9 3886.28 1791.23 3886.72 1792.8 3886.93 1793.56 3887.61 1795.88 3888.64 1798.21 3889.04 1798.74 3891.32 1799.93 3893.59 1800.15 3895.86 1800.16 3898.13 1800.16 3900.4 1800.16 3902.67 1800.16 3904.94 1800.16 3907.21 1800.16 3909.48 1800.16 3911.75 1800.16 3914.02 1800.16 3916.29 1800.16 3918.56 1800.16 3920.83 1800.16 3923.1 1800.16 3925.37 1800.16 3927.64 1800.16 3929.91 1800.16 3930.87 1800.16 3932.18 1800.16 3934.45 1800.16 3936.72 1800.16 3938.99 1800.16 3941.26 1800.16 3943.53 1800.16 3945.79 1800.16 3948.07 1800.16 3950.34 1800.16 3952.61 1800.16 3954.88 1800.16 3957.14 1800.16 3959.41 1800.16 3961.68 1800.16 3963.95 1800.16 3966.22 1800.15 3968.49 1800.15 3970.76 1800.15 3973.03 1800.16 3975.3 1800.15 3977.57 1800.15 3979.84 1800.15 3982.11 1800.15 3984.38 1800.15 3986.65 1800.15 3988.92 1800.15 3991.19 1800.15 3993.46 1800.15 3995.73 1800.15 3998 1800.15 4000.27 1800.15 4002.54 1800.15 4004.81 1800.15 4007.08 1800.15 4009.35 1800.15 4011.62 1800.15 4013.89 1800.15 4016.16 1800.15 4018.43 1800.15 4020.7 1800.15 4022.97 1800.15 4025.23 1800.15 4027.51 1800.15 4029.78 1800.15 4032.05 1800.15 4034.32 1800.15 4036.58 1800.15 4038.86 1800.15 4041.12 1800.15 4043.39 1800.15 4045.66 1800.15 4047.93 1800.15 4050.2 1800.15 4052.47 1800.15 4054.74 1800.14 4057.01 1800.15 4059.28 1800.14 4061.55 1800.14 4063.82 1800.15 4066.09 1800.14 4068.36 1800.14 4070.63 1800.14 4072.9 1800.14 4075.17 1800.14 4077.44 1800.14 4079.71 1800.14 4081.98 1800.14 4084.25 1800.14 4086.52 1800.14 4088.79 1800.14 4091.06 1800.14 4093.33 1800.14 4095.6 1800.14 4097.87 1800.14 4100.14 1800.14 4102.41 1800.14 4104.68 1800.14 4106.95 1800.14 4109.22 1800.14 4111.49 1800.14 4113.76 1800.14 4116.03 1800.14 4118.3 1800.14 4120.56 1800.14 4122.84 1800.14 4125.1 1800.14 4127.38 1800.14 4129.65 1800.14 4131.91 1800.14 4134.19 1800.14 4136.45 1800.14 4138.72 1800.14 4141 1800.14 4143.26 1800.14 4145.53 1800.14 4147.8 1800.14 4150.07 1800.14 4152.35 1800.14 4154.61 1800.14 4156.88 1800.14 4159.15 1800.14 4161.42 1800.14 4163.69 1800.14 4165.96 1800.14 4168.23 1800.13 4170.5 1800.13 4172.77 1800.13 4175.04 1800.13 4177.31 1800.13 4179.58 1800.1 4181.85 1799.7 4183.93 1797.86 4183.15 1795.54 4181.83 1793.22 4181.79 1793.15 4180.35 1790.9 4179.48 1789.54 4178.86 1788.58 4177.39 1786.26 4177.18 1785.93 4175.91 1783.94 4174.88 1782.33 4174.43 1781.62 4172.95 1779.3 4172.57 1778.72 4171.47 1776.98 4170.27 1775.11 4169.98 1774.66 4168.51 1772.35 4167.97 1771.5 4167.03 1770.03 4165.67 1767.89 4165.55 1767.7 4164.07 1765.39 4163.37 1764.29 4162.59 1763.07 4161.11 1760.75 4161.06 1760.68 4159.63 1758.43 4158.76 1756.96 4158.23 1756.11 4157.87 1753.78 4158.72 1752.32 4159.33 1751.43 4160.97 1750.32 4162.94 1749.07 4163.23 1748.88 4165.49 1747.92 4167.76 1748.3 4168.5 1749.02 4170.06 1750.81 4170.38 1751.33 4171.87 1753.65 4172.36 1754.42 4173.35 1755.97 4174.66 1758.03 4174.82 1758.29 4176.3 1760.61 4176.96 1761.63 4177.79 1762.93 4179.26 1765.24 4179.27 1765.25 4180.74 1767.57 4181.57 1768.85 4182.23 1769.89 4183.7 1772.2 4183.87 1772.46 4185.19 1774.53 4186.17 1776.07 4186.66 1776.85 4188.15 1779.16 4188.47 1779.67 4189.63 1781.48 4190.77 1783.28 4191.11 1783.8 4192.58 1786.12 4193.07 1786.89 4194.07 1788.44 4195.38 1790.5 4195.7 1790.76 4197.67 1792.32 4199.93 1791.75 4200.73 1790.71 4202.17 1788.83 4202.47 1788.37 4203.96 1786.02 4204.41 1785.3 4205.44 1783.67 4206.65 1781.77 4206.93 1781.33 4208.42 1778.98 4208.89 1778.24 4209.9 1776.63 4211.12 1774.71 4211.39 1774.29 4212.88 1771.94 4213.36 1771.17 4214.36 1769.6 4215.6 1767.64 4215.85 1767.25 4217.34 1764.9 4217.84 1764.11 4218.82 1762.56 4220.08 1760.58 4220.31 1760.21 4221.79 1757.86 4222.31 1757.05 4223.28 1755.52 4224.55 1753.52 4224.77 1753.17 4226.26 1750.83 4226.79 1749.98 4227.74 1748.48 4229.03 1746.45 4229.23 1746.13 4230.71 1743.79 4231.27 1742.92 4232.2 1741.44 4233.5 1739.39 4233.69 1739.09 4235.18 1736.75 4235.74 1735.86 4236.66 1734.4 4237.98 1732.32 4238.15 1732.06 4239.64 1729.71 4240.21 1728.79 4241.12 1727.36 4242.45 1725.26 4242.61 1725.02 4244.09 1722.67 4244.69 1721.73 4245.58 1720.33 4246.93 1718.2 4247.07 1717.98 4248.55 1715.63 4249.16 1714.66 4250.04 1713.29 4251.4 1711.13 4251.53 1710.94 4253.01 1708.59 4253.64 1707.6 4254.5 1706.25 4255.88 1704.07 4255.99 1703.9 4257.47 1701.55 4258.11 1700.54 4258.96 1699.21 4260.35 1697 4260.44 1696.86 4261.93 1694.52 4262.59 1693.47 4263.42 1692.17 4264.83 1689.94 4264.91 1689.82 4266.39 1687.48 4267.07 1686.41 4267.88 1685.13 4269.3 1682.88 4269.36 1682.78 4270.85 1680.44 4271.54 1679.35 4272.34 1678.09 4273.78 1675.82 4273.82 1675.74 4275.31 1673.4 4276.02 1672.28 4276.8 1671.05 4278.25 1668.75 4278.28 1668.71 4279.45 1666.37 4279.28 1664.03 4278.2 1663.2 4275.93 1662.24 4274.08 1661.75 4273.65 1661.65 4271.38 1661.14 4269.1 1660.62 4266.83 1660.11 4264.55 1659.59 4264.16 1659.51 4262.28 1659.08 4260.01 1658.57 4257.73 1658.05 4255.46 1657.54 4254.24 1657.26 4253.18 1657.02 4250.91 1656.51 4248.63 1655.99 4246.36 1655.48 4244.31 1655.02 4244.09 1654.97 4241.81 1654.45 4239.54 1653.94 4237.26 1653.42 4234.99 1652.91 4234.39 1652.78 4232.71 1652.39 4230.44 1651.88 4228.16 1651.37 4225.89 1650.85 4224.47 1650.53 4223.62 1650.34 4221.34 1649.82 4219.07 1649.18 4217.1 1648.27 4216.79 1647.86 4216.01 1645.94 4216.26 1643.61 4216.72 1641.53 4216.79 1641.27 4217.6 1638.93 4218.96 1637.12 4221.22 1636.74 4223.5 1637.11 4225.77 1637.61 4228.04 1638.13 4230.32 1638.64 4231.06 1638.81 4232.6 1639.16 4234.87 1639.67 4237.14 1640.18 4239.41 1640.7 4240.98 1641.05 4241.69 1641.21 4243.97 1641.73 4246.24 1642.24 4248.51 1642.76 4250.78 1643.27 4250.9 1643.29 4253.06 1643.79 4255.34 1644.21 4257.61 1644.58 4259.88 1644.7 4262.14 1643.71 4262.32 1643.19 4262.13 1642.96 4260.75 1640.87 4259.84 1639.9 4258.73 1638.56 4257.54 1637.36 4256.52 1636.24 4255.25 1634.96 4254.24 1633.93 4252.96 1632.63 4251.97 1631.62 4250.67 1630.3 4249.7 1629.31 4248.38 1627.97 4247.42 1627 4246.09 1625.64 4245.15 1624.68 4243.8 1623.31 4242.88 1622.37 4241.5 1620.98 4240.6 1620.06 4239.22 1618.65 4238.33 1617.75 4236.93 1616.32 4236.06 1615.44 4234.64 1613.99 4233.78 1613.12 4232.35 1611.66 4231.51 1610.81 4230.05 1609.33 4229.24 1608.5 4227.76 1607 4226.97 1606.19 4225.47 1604.67 4224.69 1603.88 4223.18 1602.34 4222.42 1601.56 4220.89 1600.01 4220.14 1599.25 4218.6 1597.68 4217.87 1596.94 4216.31 1595.35 4215.6 1594.63 4214.02 1593.02 4213.33 1592.31 4211.72 1590.69 4211.05 1590 4209.43 1588.36 4208.78 1587.69 4207.14 1586.03 4206.51 1585.38 4204.85 1583.7 4204.23 1583.06 4202.56 1581.37 4201.96 1580.75 4200.27 1579.04 4199.69 1578.44 4197.98 1576.71 4197.41 1576.13 4195.69 1574.38 4195.14 1573.82 4193.4 1572.05 4192.86 1571.5 4191.11 1569.72 4190.59 1569.19 4188.82 1567.38 4188.19 1566.88 4186.53 1565.76 4184.26 1565.2 4181.99 1565.28 4179.72 1565.48 4177.45 1565.67 4175.18 1565.87 4172.91 1566.07 4170.65 1566.27 4168.38 1566.46 4166.11 1566.66 4163.84 1566.86 4161.58 1567.06 4160.73 1567.13 4159.31 1567.25 4157.04 1567.45 4154.77 1567.65 4152.5 1567.63 4151.12 1567.22 4150.22 1566.57 4149.5 1564.9 4149.12 1562.57 4148.94 1560.24 4149.03 1557.91 4150.13 1555.95 4150.73 1555.56 4152.39 1555.04 4154.66 1554.72 4156.93 1554.53 4159.19 1554.33 4161.46 1554.13 4163.73 1553.93 4165.99 1553.74 4168.26 1553.54 4170.53 1553.34 4172.8 1553.14 4174.35 1553.01 4175.07 1552.94 4177.34 1552.58 4179.59 1551.33 4180.08 1550.63 4180 1548.29 4179.55 1546.86 4179.29 1545.97 4178.45 1543.64 4177.61 1541.32 4177.22 1540.25 4176.77 1538.99 4175.93 1536.67 4175.09 1534.34 4174.89 1533.81 4174.24 1532.02 4173.41 1529.69 4172.56 1527.37 4172.56 1527.37 4171.72 1525.04 4170.88 1522.72 4170.24 1520.93 4170.04 1520.39 4169.2 1518.06 4168.36 1515.74 4167.91 1514.5 4167.52 1513.41 4166.68 1511.09 4165.84 1508.77 4165.58 1508.06 4165 1506.44 4164.15 1504.12 4163.31 1501.79 4163.25 1501.62 4162.47 1499.46 4161.64 1497.14 4160.92 1495.18 4160.79 1494.82 4159.95 1492.49 4159.11 1490.16 4158.6 1488.75 4158.27 1487.84 4157.43 1485.51 4156.59 1483.19 4156.27 1482.31 4155.74 1480.86 4154.9 1478.54 4154.07 1476.21 4153.94 1475.87 4153.22 1473.89 4152.39 1471.56 4151.61 1469.43 4151.54 1469.24 4150.7 1466.91 4149.86 1464.59 4149.29 1462.99 4149.02 1462.26 4148.18 1459.94 4147.34 1457.61 4146.96 1456.56 4146.5 1455.29 4145.66 1452.96 4144.82 1450.64 4144.63 1450.12 4143.98 1448.31 4143.13 1445.99 4142.3 1443.68 4142.29 1443.66 4141.45 1441.34 4140.61 1439.01 4139.97 1437.24 4139.77 1436.68 4138.93 1434.36 4138.09 1432.04 4137.64 1430.81 4137.25 1429.71 4136.41 1427.38 4135.57 1425.06 4135.31 1424.37 4134.72 1422.73 4133.89 1420.41 4133.05 1418.09 4132.99 1417.93 4132.21 1415.76 4131.36 1413.43 4130.66 1411.49 4130.52 1411.11 4129.68 1408.78 4128.84 1406.46 4128.33 1405.06 4128 1404.13 4127.16 1401.81 4126.32 1399.48 4126.01 1398.62 4125.44 1397.16 4124.2 1394.84 4123.7 1394.26 4121.41 1393.24 4119.15 1393.08 4116.88 1393.1 4114.61 1393.13 4112.34 1393.16 4110.07 1393.18 4107.8 1393.21 4105.53 1393.24 4103.26 1393.27 4100.99 1393.3 4098.72 1393.33 4096.45 1393.36 4094.18 1393.38 4091.91 1393.41 4089.64 1393.44 4087.37 1393.47 4085.1 1393.54 4082.83 1393.88 4080.79 1395.23 4080.58 1395.74 4080.18 1397.57 4080.12 1399.9 4080.16 1402.23 4080.2 1404.57 4080.24 1406.9 4080.28 1409.23 4080.32 1411.56 4080.36 1413.9 4080.4 1416.23 4080.43 1418.56 4080.48 1420.89 4080.52 1423.23 4080.55 1425.56 4080.59 1427.89 4080.63 1430.22 4080.67 1432.56 4080.71 1434.89 4080.76 1437.22 4080.79 1439.55 4080.83 1441.88 4080.87 1444.22 4080.91 1446.55 4080.95 1448.88 4080.99 1451.21 4081.03 1453.55 4081.07 1455.88 4081.11 1458.21 4081.15 1460.55 4081.19 1462.88 4081.2 1463.61 4081.23 1465.21 4081.26 1467.54 4081.31 1469.87 4081.34 1472.21 4081.39 1474.54 4081.43 1476.87 4081.47 1479.2 4081.5 1481.54 4081.54 1483.87 4081.58 1486.2 4081.62 1488.53 4081.66 1490.87 4081.7 1493.2 4081.74 1495.53 4081.78 1497.86 4081.82 1500.19 4081.86 1502.53 4081.9 1504.86 4081.94 1507.19 4081.98 1509.53 4082.01 1511.86 4082.05 1514.19 4082.09 1516.52 4082.13 1518.86 4082.17 1521.19 4082.21 1523.52 4082.25 1525.85 4082.29 1528.18 4082.33 1530.52 4082.37 1532.85 4082.41 1535.18 4082.45 1537.52 4082.49 1539.85 4082.53 1542.18 4082.57 1544.51 4082.61 1546.84 4082.65 1549.18 4082.69 1551.51 4082.72 1553.84 4082.83 1556.17 4083.31 1558.5 4084.34 1559.84 4086.62 1560.49 4088.89 1560.43 4091.16 1560.25 4093.42 1560.05 4095.69 1559.85 4097.96 1559.65 4100.23 1559.46 4102.49 1559.26 4104.76 1559.06 4107.03 1558.87 4109.3 1558.67 4111.57 1558.47 4113.83 1558.27 4114.47 1558.22 4116.1 1558.08 4118.37 1557.88 4120.64 1557.68 4122.9 1557.48 4125.17 1557.29 4127.44 1557.09 4129.71 1556.89 4131.98 1556.69 4134.25 1556.58 4136.52 1556.95 4137.75 1558.01 4138.51 1560.33 4138.77 1562.66 4138.86 1564.28 4138.9 1564.99 4138.86 1565.33 4138.53 1567.33 4136.63 1568.84 4134.36 1569.4 4132.1 1569.62 4130.78 1569.73 4129.83 1569.82 4127.56 1570.02 4125.29 1570.21 4123.02 1570.41 4120.75 1570.61 4118.48 1570.8 4116.22 1571 4113.95 1571.2 4111.68 1571.4 4109.41 1571.59 4107.15 1571.79 4104.88 1571.99 4102.61 1572.18 4100.84 1572.34 4100.34 1572.38 4098.07 1572.59 4095.81 1572.87 4093.54 1573.49 4091.88 1574.75 4092.23 1577.08 4093.6 1579.36 4093.62 1579.4 4095.27 1581.72 4095.9 1582.61 4096.92 1584.04 4098.2 1585.84 4098.56 1586.36 4100.21 1588.67 4100.49 1589.07 4101.86 1590.99 4102.79 1592.3 4103.51 1593.31 4105.09 1595.53 4105.16 1595.63 4106.81 1597.94 4107.39 1598.77 4108.45 1600.26 4109.69 1602 4110.1 1602.58 4111.75 1604.9 4111.99 1605.23 4113.4 1607.22 4114.29 1608.53 4114.98 1609.54 4116.59 1611.75 4116.69 1611.85 4118.87 1613.24 4121.15 1613.96 4121.92 1614.14 4123.42 1614.48 4125.7 1614.99 4127.97 1615.51 4130.25 1616.02 4131.84 1616.38 4132.52 1616.53 4134.79 1617.05 4137.07 1617.56 4139.35 1618.08 4141.61 1618.59 4141.76 1618.62 4143.89 1619.11 4146.17 1619.62 4148.44 1620.13 4150.71 1620.65 4151.69 1620.87 4152.99 1621.16 4155.26 1621.67 4157.54 1622.19 4159.81 1622.7 4161.61 1623.11 4162.09 1623.22 4164.36 1623.73 4166.64 1624.25 4168.91 1624.76 4171.19 1625.27 4171.53 1625.35 4173.46 1625.79 4175.73 1626.3 4178.01 1626.82 4180.28 1627.33 4181.45 1627.6 4182.55 1627.84 4184.83 1628.36 4187.11 1628.87 4189.38 1629.39 4191.37 1629.84 4191.65 1629.9 4193.93 1630.42 4196.2 1630.93 4198.48 1631.44 4200.75 1631.96 4201.29 1632.08 4203.03 1632.51 4205.31 1633.41 4206.51 1634.37 4207.07 1636.69 4206.72 1639.03 4206.15 1641.37 4205.4 1643.61 4205.33 1643.71 4203.14 1645.21 4200.87 1645.14 4198.6 1644.68 4196.32 1644.17 4194.71 1643.8 4194.05 1643.65 4191.78 1643.14 4189.5 1642.63 4187.23 1642.11 4184.95 1641.6 4184.79 1641.56 4182.68 1641.08 4180.4 1640.57 4178.13 1640.06 4175.85 1639.54 4174.86 1639.32 4173.58 1639.03 4171.31 1638.51 4169.03 1638 4166.76 1637.48 4164.95 1637.08 4164.48 1636.97 4162.21 1636.46 4159.93 1635.94 4157.66 1635.43 4155.38 1634.91 4155.02 1634.83 4153.11 1634.4 4150.84 1633.88 4148.56 1633.37 4146.28 1632.86 4145.1 1632.59 4144.01 1632.34 4141.74 1631.83 4139.46 1631.32 4137.19 1630.8 4135.18 1630.35 4134.92 1630.29 4132.64 1629.77 4130.36 1629.26 4128.09 1628.74 4125.82 1628.23 4125.26 1628.1 4123.54 1627.71 4121.27 1627.36 4119 1627.64 4118.41 1628.17 4117.57 1630.51 4117.45 1632.84 4117.45 1635.17 4117.47 1637.51 4117.49 1639.84 4117.51 1642.17 4117.53 1644.5 4117.56 1646.84 4117.58 1649.17 4117.6 1651.5 4117.62 1653.83 4117.65 1656.17 4117.66 1658.5 4117.58 1660.83 4117.26 1663.17 4117.07 1665.38 4117.06 1665.5 4117.08 1665.59 4117.43 1667.83 4118.58 1670.15 4119.4 1671.44 4120.06 1672.47 4121.54 1674.79 4121.7 1675.05 4123.02 1677.11 4124 1678.65 4124.5 1679.43 4125.98 1681.75 4126.3 1682.26 4127.46 1684.07 4128.61 1685.87 4128.94 1686.39 4130.42 1688.71 4130.91 1689.48 4131.9 1691.03 4133.21 1693.09 4133.38 1693.35 4134.86 1695.67 4135.52 1696.69 4136.34 1697.99 4137.82 1700.3 4137.82 1700.31 4139.3 1702.63 4140.12 1703.91 4140.78 1704.94 4142.27 1707.26 4142.43 1707.52 4143.74 1709.58 4144.73 1711.12 4145.22 1711.9 4146.7 1714.22 4147.03 1714.73 4148.19 1716.54 4149.33 1718.34 4149.66 1718.86 4151.14 1721.18 4151.63 1721.95 4152.62 1723.5 4153.94 1725.56 4154.1 1725.82 4155.59 1728.14 4156.24 1729.16 4157.06 1730.46 4158.54 1732.77 4158.54 1732.78 4159.86 1735.1 4160.05 1737.43 4158.6 1739.45 4158.31 1739.78 4156.34 1741.04 4154.61 1742.14 4154.09 1742.49 4151.82 1743.09 4149.55 1742.2 4149.54 1742.19 4147.81 1739.87 4147.25 1739.03 4146.3 1737.56 4144.94 1735.42 4144.82 1735.23 4143.35 1732.91 4142.64 1731.82 4141.86 1730.6 4140.38 1728.28 4140.34 1728.21 4138.9 1725.96 4138.04 1724.6 4137.42 1723.64 4135.94 1721.32 4135.74 1720.99 4134.47 1719 4133.43 1717.38 4132.98 1716.68 4131.5 1714.36 4131.13 1713.78 4130.02 1712.04 4128.83 1710.17 4128.54 1709.72 4127.06 1707.4 4126.52 1706.56 4125.58 1705.08 4124.23 1702.95 4124.1 1702.76 4122.62 1700.44 4121.92 1699.34 4121.14 1698.12 4119.66 1695.81 4119.62 1695.74 4118.18 1693.48 4117.31 1692.13 4116.7 1691.17 4115.22 1688.85 4115.01 1688.52 4113.74 1686.53 4112.71 1684.91 4112.26 1684.21 4110.78 1681.89 4110.41 1681.3 4109.3 1679.57 4108.11 1677.69 4107.81 1677.25 4106.02 1674.93 4105.81 1674.74 4103.53 1673.63 4101.26 1673.39 4098.99 1673.36 4096.72 1673.34 4094.45 1673.32 4092.18 1673.3 4089.91 1673.27 4087.64 1673.25 4085.37 1673.23 4083.1 1673.21 4080.83 1673.18 4078.56 1673.16 4076.29 1673.14 4074.02 1673.12 4071.75 1673.1 4069.48 1673.07 4067.21 1673.05 4064.94 1673.03 4062.67 1673.01 4062.05 1673 4060.4 1672.98 4058.13 1672.96 4055.86 1672.94 4053.59 1672.92 4051.32 1672.89 4049.05 1672.87 4046.78 1672.85 4044.51 1672.83 4042.24 1672.81 4039.97 1672.78 4037.7 1672.76 4035.43 1672.74 4033.16 1672.72 4030.89 1672.7 4028.62 1672.67 4026.35 1672.65 4024.08 1672.63 4021.81 1672.61 4019.54 1672.58 4017.27 1672.56 4015 1672.54 4012.73 1672.52 4010.46 1672.49 4008.19 1672.47 4005.92 1672.45 4003.65 1672.43 4001.38 1672.41 3999.11 1672.38 3996.84 1672.36 3994.57 1672.34 3992.3 1672.32 3990.03 1672.29 3987.76 1672.27 3985.49 1672.25 3983.22 1672.23 3980.95 1672.2 3978.68 1672.18 3976.41 1672.16 3974.14 1672.14 3971.87 1672.12 3969.6 1672.09 3967.33 1672.07 3965.06 1672.05 3962.79 1672.03 3960.52 1672.01 3958.25 1671.98 3955.98 1671.96 3953.71 1671.94 3951.44 1671.91 3949.17 1671.89 3946.91 1671.87 3944.63 1671.85 3942.36 1671.83 3940.1 1671.81 3938.38 1671.79 3937.82 1671.78 3935.55 1671.76 3933.28 1671.74 3931.01 1671.71 3928.74 1671.69 3926.47 1671.67 3924.21 1671.65 3921.93 1671.63 3919.66 1671.61 3917.39 1671.58 3915.12 1671.56 3912.85 1671.54 3910.59 1671.52 3908.31 1671.49 3906.05 1671.47 3903.78 1671.45 3901.5 1671.43 3899.23 1671.4 3896.97 1671.38 3894.69 1671.36 3892.43 1671.34 3890.16 1671.32 3887.89 1671.3 3885.61 1671.27 3883.34 1671.25 3881.08 1671.23 3878.8 1671.2 3876.54 1671.18 3874.26 1671.16 3871.99 1671.14 3869.72 1671.12 3867.45 1671.09 3865.19 1671.07 3862.92 1671.05 3860.64 1671.03 3858.38 1671.09 3856.11 1671.47 3854.53 1672.55 3854.24 1674.88 3854.71 1677.21 3855.33 1679.54 3855.98 1681.87 3856.21 1682.71" style="fill:#00aeef;stroke:#ec008c;stroke-linecap:round;stroke-linejoin:round;stroke-width:10px"/><path d="M1895.1,1563.08c-4.54.39-6.26,2.43-5.86,7l0,.89c.39,4.54,2.43,6.25,7,5.86l151.22-13c4.53-.39,6.25-2.44,5.86-7,0-.29-.05-.59-.08-.88-.39-4.54-2.43-6.26-7-5.87Z" style="fill:#00aeef;stroke:#ec008c;stroke-linecap:round;stroke-linejoin:round;stroke-width:10px"/><path d="M1193.14,908.91a6,6,0,0,0,1.17,3.62A6,6,0,0,1,1193.14,908.91Z" style="fill:none;stroke:#ec008c;stroke-linecap:round;stroke-linejoin:round;stroke-width:4px"/><polygon points="3338.71 915.34 3336.28 727.7 3402.34 726.92 3465.2 903.47 3568.64 1009.65 3471.07 1159.54 3146.42 1160.6 3103.51 1005.37 3372.96 1007.28 3372.82 963.88 3338.71 915.34" style="fill:none;stroke:#bcbec0;stroke-linecap:round;stroke-linejoin:round;stroke-width:4px"/><polygon points="2620.29 915.34 2617.86 727.7 2683.92 726.92 2746.78 903.47 2850.22 1009.65 2752.65 1159.54 2428 1160.6 2385.08 1005.37 2654.54 1007.28 2654.4 963.88 2620.29 915.34" style="fill:none;stroke:#bcbec0;stroke-linecap:round;stroke-linejoin:round;stroke-width:4px"/><polygon points="1905.87 915.34 1903.44 727.7 1969.5 726.92 2032.36 903.47 2135.8 1009.65 2038.23 1159.54 1713.58 1160.6 1670.66 1005.37 1940.12 1007.28 1939.98 963.88 1905.87 915.34" style="fill:none;stroke:#bcbec0;stroke-linecap:round;stroke-linejoin:round;stroke-width:4px"/><polygon points="1179.44 915.34 1177.02 727.7 1243.08 726.92 1305.94 903.47 1409.38 1009.65 1311.81 1159.54 987.16 1160.6 944.24 1005.37 1213.7 1007.28 1213.56 963.88 1179.44 915.34" style="fill:none;stroke:#bcbec0;stroke-linecap:round;stroke-linejoin:round;stroke-width:4px"/><polygon points="4069.13 915.34 4066.7 727.7 4132.76 726.92 4195.62 903.47 4299.06 1009.65 4201.49 1159.54 3876.84 1160.6 3833.93 1005.37 4103.38 1007.28 4103.24 963.88 4069.13 915.34" style="fill:none;stroke:#bcbec0;stroke-linecap:round;stroke-linejoin:round;stroke-width:4px"/><polygon points="471.02 911.34 468.6 723.7 534.66 722.92 597.52 899.47 700.96 1005.65 603.39 1155.54 278.74 1156.6 235.82 1001.37 505.27 1003.28 505.14 959.88 471.02 911.34" style="fill:none;stroke:#bcbec0;stroke-linecap:round;stroke-linejoin:round;stroke-width:4px"/><path d="M1937.33,970.27c-4.45-1-5.88-3.26-4.88-7.7,0-.19.08-.37.13-.56,1-4.44,3.25-5.87,7.69-4.87l195.89,44c4.44,1,5.87,3.25,4.87,7.69-.06.29-.12.58-.19.87-1,4.45-3.25,5.87-7.7,4.88Z" style="fill:none;stroke:#231f20;stroke-linecap:round;stroke-linejoin:round;stroke-width:4px"/><path d="M1928.36,1000.9c-2.46-3.84-1.88-6.44,2-8.9l.75-.48c3.84-2.46,6.44-1.89,8.9,2l106.65,166.39c2.45,3.84,1.89,6.44-1.95,8.9l-.62.68c-3.84,2.46-6.45,1.89-8.9-2Q1981.74,1084.2,1928.36,1000.9Z" style="fill:none;stroke:#231f20;stroke-linecap:round;stroke-linejoin:round;stroke-width:4px"/><path d="M2688.16,898.68l1.9,24.44c.29,3.75,2,5.18,5.72,4.89l.73-.06c3.75-.29,5.19-2,4.89-5.72l-1.89-24.4c-.3-3.75-2-5.18-5.72-4.89l-.74,0C2689.3,893.25,2687.87,894.93,2688.16,898.68Z" style="fill:none;stroke:#231f20;stroke-linecap:round;stroke-linejoin:round;stroke-width:4px"/><path d="M2701.7,1105c-3.17,2-5.33,1.56-7.36-1.61l-.39-.62c-2-3.17-1.56-5.32,1.61-7.35l20.63-13.22c3.17-2,5.33-1.56,7.36,1.61l.36.63c2,3.17,1.56,5.33-1.61,7.36Z" style="fill:none;stroke:#231f20;stroke-linecap:round;stroke-linejoin:round;stroke-width:4px"/><path d="M2765.89,1001.65c-.69,3.7-2.51,5-6.21,4.25l-.72-.14c-3.7-.69-4.95-2.51-4.25-6.21q2.26-12,4.54-24.09c.69-3.7,2.51-4.94,6.21-4.24l.72.17c3.69.7,4.94,2.52,4.24,6.21Z" style="fill:none;stroke:#231f20;stroke-linecap:round;stroke-linejoin:round;stroke-width:4px"/><path d="M1193.14,908.91q-1-80.58-2.08-161.15c-.06-4.56,1.8-6.47,6.36-6.53l31.38-.37c3.34,0,5,1.14,6.15,4.28L1293.5,909.6a6.21,6.21,0,0,0,1.46,2.34l93.27,95.74c2.6,2.67,2.82,4.89.78,8q-41.38,63.6-82.79,127.18a5.69,5.69,0,0,1-5.38,2.93l-298.29,1c-3.57,0-5.28-1.29-6.23-4.73q-15.84-57.29-31.67-114.55a6.44,6.44,0,0,1,6.26-8.16l250.1,1.77c4.59,0,6.5-1.87,6.48-6.46q-.08-26.56-.16-53.13a6.1,6.1,0,0,0-1.18-3.68l-31.84-45.31Z" style="fill:none;stroke:#231f20;stroke-linecap:round;stroke-linejoin:round;stroke-width:4px"/><path d="M468.69,730.15c-.06-4.56,1.8-6.47,6.36-6.52l55-.66c3.34,0,5,1.13,6.14,4.28q30.42,85.46,60.85,170.9a6.15,6.15,0,0,0,1.45,2.33L697.36,1002c2.61,2.67,2.82,4.89.79,8q-46.44,71.33-92.86,142.65a5.71,5.71,0,0,1-5.38,2.93l-316.25,1c-3.57,0-5.28-1.28-6.24-4.72l-39.33-142.27a6.44,6.44,0,0,1,6.26-8.16l254.42,1.81c4.59,0,6.5-1.87,6.49-6.46l-.12-34.88a6,6,0,0,0-1.17-3.68L472.17,913a6.14,6.14,0,0,1-1.17-3.63Z" style="fill:none;stroke:#231f20;stroke-linecap:round;stroke-linejoin:round;stroke-width:4px"/><polygon points="3431.84 1110.77 3408.14 1073.64 3407.28 1072.29 3406.66 1071.33 3405.18 1069.01 3404.97 1068.68 3403.7 1066.69 3402.67 1065.07 3402.22 1064.37 3400.74 1062.05 3400.37 1061.46 3399.26 1059.73 3398.06 1057.86 3397.78 1057.41 3396.3 1055.09 3395.76 1054.25 3394.82 1052.77 3393.46 1050.64 3393.34 1050.45 3391.86 1048.13 3391.16 1047.03 3390.38 1045.81 3388.9 1043.49 3388.86 1043.42 3387.42 1041.17 3386.55 1039.82 3385.94 1038.85 3384.46 1036.54 3384.25 1036.21 3382.98 1034.22 3381.95 1032.6 3381.5 1031.9 3380.02 1029.58 3379.65 1028.99 3378.54 1027.26 3377.35 1025.38 3377.05 1024.94 3375.25 1022.62 3375.05 1022.42 3372.77 1021.32 3370.49 1021.08 3368.23 1021.05 3365.96 1021.03 3363.69 1021 3361.42 1020.98 3359.14 1020.96 3356.88 1020.94 3354.61 1020.92 3352.34 1020.89 3350.07 1020.87 3347.8 1020.85 3345.53 1020.83 3343.26 1020.8 3340.99 1020.78 3338.72 1020.76 3336.45 1020.74 3334.18 1020.72 3331.91 1020.69 3331.29 1020.69 3329.64 1020.67 3327.37 1020.65 3325.1 1020.63 3322.83 1020.61 3320.56 1020.58 3318.29 1020.56 3316.02 1020.54 3313.75 1020.51 3311.48 1020.49 3309.21 1020.47 3306.94 1020.45 3304.67 1020.43 3302.4 1020.4 3300.13 1020.38 3297.86 1020.36 3295.59 1020.34 3293.32 1020.32 3291.05 1020.29 3288.78 1020.27 3286.51 1020.25 3284.24 1020.23 3281.97 1020.2 3279.7 1020.18 3277.43 1020.16 3275.16 1020.14 3272.89 1020.12 3270.62 1020.09 3268.35 1020.07 3266.08 1020.05 3263.81 1020.03 3261.54 1020 3259.27 1019.98 3257 1019.96 3254.73 1019.94 3252.46 1019.92 3250.19 1019.89 3247.93 1019.87 3245.65 1019.85 3243.38 1019.83 3241.11 1019.81 3238.84 1019.78 3236.57 1019.76 3234.3 1019.74 3232.03 1019.72 3229.76 1019.69 3227.49 1019.67 3225.22 1019.65 3222.95 1019.63 3220.68 1019.6 3218.41 1019.58 3216.14 1019.56 3213.87 1019.54 3211.6 1019.52 3209.33 1019.49 3207.62 1019.48 3207.06 1019.47 3204.79 1019.45 3202.52 1019.43 3200.25 1019.4 3197.98 1019.38 3195.71 1019.36 3193.44 1019.34 3191.17 1019.32 3188.9 1019.29 3186.64 1019.27 3184.36 1019.25 3182.09 1019.23 3179.82 1019.21 3177.55 1019.18 3175.28 1019.16 3173.01 1019.14 3170.74 1019.12 3168.47 1019.09 3166.2 1019.07 3163.93 1019.05 3161.66 1019.03 3159.39 1019 3157.13 1018.98 3154.85 1018.96 3152.58 1018.94 3150.32 1018.91 3148.04 1018.89 3145.77 1018.87 3143.5 1018.85 3141.23 1018.83 3138.96 1018.8 3136.69 1018.78 3134.43 1018.76 3132.15 1018.74 3129.88 1018.72 3127.61 1018.77 3125.35 1019.16 3123.77 1020.24 3123.48 1022.57 3123.94 1024.9 3124.57 1027.23 3125.22 1029.56 3125.45 1030.39 3125.87 1031.88 3126.51 1034.21 3127.15 1036.54 3127.8 1038.86 3128.44 1041.19 3129.09 1043.52 3129.73 1045.84 3130.14 1047.33 3130.38 1048.17 3131.02 1050.5 3131.66 1052.82 3132.31 1055.15 3132.49 1055.8 3132.96 1057.48 3133.6 1059.81 3134.24 1062.13 3134.84 1064.27 3134.89 1064.46 3135.53 1066.79 3136.18 1069.11 3136.82 1071.44 3137.18 1072.74 3137.47 1073.77 3138.11 1076.09 3138.76 1078.42 3139.4 1080.75 3139.53 1081.21 3140.05 1083.07 3140.69 1085.4 3141.34 1087.73 3141.87 1089.67 3141.98 1090.05 3142.63 1092.38 3143.27 1094.71 3143.92 1097.04 3144.22 1098.14 3144.56 1099.36 3145.21 1101.69 3145.85 1104.02 3146.5 1106.34 3146.57 1106.61 3147.14 1108.67 3147.78 1111 3148.43 1113.32 3148.91 1115.08 3149.07 1115.65 3149.72 1117.98 3150.36 1120.31 3151.01 1122.63 3151.26 1123.55 3151.66 1124.96 3152.3 1127.28 3152.94 1129.61 3153.59 1131.94 3153.61 1132.02 3154.23 1134.27 3154.88 1136.59 3155.52 1138.92 3155.95 1140.49 3156.17 1141.25 3156.85 1143.57 3157.88 1145.9 3158.28 1146.43 3160.56 1147.62 3162.83 1147.84 3165.1 1147.85 3167.37 1147.85 3169.64 1147.85 3171.91 1147.85 3174.18 1147.85 3176.45 1147.85 3178.72 1147.85 3180.99 1147.85 3183.26 1147.85 3185.53 1147.85 3187.8 1147.85 3190.07 1147.85 3192.34 1147.85 3194.61 1147.85 3196.88 1147.85 3199.14 1147.85 3200.11 1147.85 3201.42 1147.85 3203.69 1147.85 3205.96 1147.85 3208.22 1147.85 3210.49 1147.85 3212.77 1147.85 3215.03 1147.84 3217.31 1147.85 3219.58 1147.85 3221.84 1147.84 3224.12 1147.84 3226.38 1147.84 3228.65 1147.84 3230.93 1147.84 3233.2 1147.84 3235.47 1147.84 3237.73 1147.84 3240 1147.84 3242.27 1147.84 3244.54 1147.84 3246.81 1147.84 3249.08 1147.84 3251.35 1147.84 3253.62 1147.84 3255.89 1147.84 3258.16 1147.84 3260.43 1147.84 3262.7 1147.84 3264.97 1147.84 3267.24 1147.84 3269.51 1147.84 3271.78 1147.84 3274.05 1147.84 3276.32 1147.84 3278.59 1147.84 3280.86 1147.84 3283.13 1147.84 3285.4 1147.84 3287.66 1147.84 3289.94 1147.84 3292.2 1147.84 3294.47 1147.84 3296.75 1147.84 3299.01 1147.84 3301.29 1147.84 3303.56 1147.84 3305.82 1147.84 3308.1 1147.84 3310.36 1147.84 3312.63 1147.84 3314.9 1147.84 3317.17 1147.84 3319.45 1147.84 3321.71 1147.84 3323.98 1147.83 3326.25 1147.84 3328.52 1147.83 3330.79 1147.83 3333.06 1147.84 3335.33 1147.83 3337.6 1147.83 3339.87 1147.83 3342.14 1147.83 3344.41 1147.83 3346.68 1147.83 3348.95 1147.83 3351.22 1147.83 3353.49 1147.83 3355.76 1147.83 3358.03 1147.83 3360.3 1147.83 3362.57 1147.83 3364.84 1147.83 3367.11 1147.83 3369.38 1147.83 3371.65 1147.83 3373.92 1147.83 3376.18 1147.83 3378.45 1147.83 3380.73 1147.83 3382.99 1147.83 3385.26 1147.83 3387.54 1147.83 3389.8 1147.83 3392.08 1147.83 3394.34 1147.83 3396.61 1147.83 3398.89 1147.83 3401.15 1147.83 3403.43 1147.83 3405.69 1147.83 3407.96 1147.83 3410.24 1147.83 3412.5 1147.83 3414.77 1147.83 3417.04 1147.83 3419.31 1147.83 3421.58 1147.82 3423.85 1147.82 3426.12 1147.82 3428.39 1147.82 3430.66 1147.82 3432.93 1147.82 3435.2 1147.82 3437.47 1147.82 3439.74 1147.82 3442.01 1147.82 3444.28 1147.82 3446.55 1147.81 3448.82 1147.79 3451.08 1147.39 3453.17 1145.55 3452.39 1143.23 3451.07 1140.91 3451.02 1140.84 3449.58 1138.59 3448.72 1137.23 3448.1 1136.27 3446.63 1133.95 3446.42 1133.62 3445.14 1131.63 3444.12 1130.02 3443.66 1129.31 3442.19 1126.99 3441.81 1126.41 3440.71 1124.67 3439.51 1122.8 3439.22 1122.35 3437.75 1120.03 3437.21 1119.19 3436.27 1117.71 3434.91 1115.58 3434.78 1115.39 3433.31 1113.07 3432.6 1111.98 3431.84 1110.77" style="fill:none;stroke:#231f20;stroke-linecap:round;stroke-linejoin:round;stroke-width:4px"/><polygon points="3506.38 1001.09 3506.5 1001.11 3508.78 1001.63 3511.05 1002.14 3513.32 1002.65 3513.55 1002.71 3515.6 1003.17 3517.87 1003.68 3520.15 1004.2 3522.42 1004.71 3523.48 1004.95 3524.7 1005.22 3526.97 1005.74 3529.24 1006.25 3531.52 1006.77 3533.39 1007.19 3533.79 1007.28 3536.07 1007.8 3538.34 1008.31 3540.62 1008.82 3542.89 1009.34 3543.32 1009.44 3545.16 1009.93 3547.44 1010.89 3548.51 1011.72 3548.69 1014.05 3547.52 1016.39 3547.49 1016.44 3546.03 1018.74 3545.26 1019.97 3544.55 1021.09 3543.06 1023.43 3543.02 1023.5 3541.58 1025.78 3540.78 1027.04 3540.09 1028.13 3538.6 1030.47 3538.54 1030.57 3537.12 1032.82 3536.31 1034.1 3535.63 1035.16 3534.14 1037.51 3534.07 1037.63 3532.66 1039.86 3531.83 1041.16 3531.17 1042.2 3529.68 1044.55 3529.59 1044.69 3528.2 1046.9 3527.36 1048.22 3526.71 1049.24 3525.23 1051.59 3525.12 1051.76 3523.74 1053.93 3522.88 1055.29 3522.25 1056.28 3520.76 1058.63 3520.64 1058.82 3519.28 1060.97 3518.41 1062.35 3517.79 1063.32 3516.3 1065.67 3516.17 1065.88 3514.82 1068.01 3513.93 1069.42 3513.33 1070.36 3511.85 1072.7 3511.69 1072.95 3510.36 1075.05 3509.45 1076.48 3508.87 1077.4 3507.39 1079.74 3507.21 1080.01 3505.9 1082.09 3504.98 1083.54 3504.41 1084.44 3502.93 1086.78 3502.74 1087.08 3501.44 1089.13 3500.5 1090.61 3499.95 1091.47 3498.47 1093.82 3498.26 1094.14 3496.98 1096.17 3496.03 1097.67 3495.5 1098.52 3494.01 1100.86 3493.79 1101.2 3492.52 1103.2 3491.55 1104.73 3491.03 1105.55 3489.55 1107.9 3489.31 1108.27 3488.06 1110.24 3487.08 1111.8 3486.57 1112.59 3485.09 1114.94 3484.84 1115.33 3483.6 1117.28 3482.6 1118.86 3482.12 1119.63 3480.63 1121.97 3480.36 1122.39 3479.14 1124.32 3478.13 1125.93 3477.65 1126.67 3476.17 1129.01 3475.89 1129.46 3474.68 1131.36 3473.65 1132.99 3473.2 1133.71 3471.71 1136.05 3471.41 1136.52 3469.96 1138.4 3469.17 1139.44 3466.91 1140.01 3464.94 1138.45 3464.62 1138.19 3463.31 1136.13 3462.31 1134.58 3461.82 1133.81 3460.34 1131.49 3460.01 1130.97 3458.86 1129.17 3457.71 1127.36 3457.38 1126.85 3455.9 1124.53 3455.41 1123.75 3454.42 1122.21 3453.11 1120.15 3452.94 1119.89 3451.47 1117.58 3450.8 1116.54 3449.99 1115.26 3420.87 1069.64 3420.38 1068.87 3418.9 1066.55 3418.57 1066.03 3417.42 1064.23 3416.27 1062.42 3415.94 1061.91 3414.46 1059.59 3413.97 1058.81 3412.98 1057.27 3411.66 1055.2 3411.5 1054.95 3410.02 1052.63 3409.36 1051.6 3408.54 1050.31 3407.06 1047.99 3407.06 1047.99 3405.58 1045.67 3404.75 1044.38 3404.1 1043.36 3402.62 1041.04 3402.45 1040.77 3401.14 1038.72 3400.15 1037.16 3399.66 1036.4 3398.18 1034.08 3397.85 1033.56 3396.7 1031.76 3395.54 1029.95 3395.22 1029.44 3393.74 1027.12 3393.24 1026.34 3392.26 1024.8 3390.94 1022.73 3390.78 1022.48 3389.3 1020.16 3388.64 1019.12 3387.82 1017.84 3386.66 1015.52 3386.32 1013.28 3386.3 1013.19 3386.31 1013.07 3386.5 1010.86 3386.82 1008.52 3386.9 1006.19 3386.88 1003.85 3386.86 1001.52 3386.84 999.19 3386.82 996.86 3386.8 994.52 3386.77 992.19 3386.75 989.86 3386.73 987.53 3386.71 985.19 3386.69 982.86 3386.69 980.53 3386.81 978.2 3387.65 975.85 3388.24 975.33 3390.51 975.05 3392.78 975.4 3394.5 975.79 3395.05 975.92 3397.33 976.43 3399.6 976.95 3401.88 977.46 3404.15 977.98 3404.42 978.03 3406.42 978.49 3408.7 979 3410.98 979.52 3413.25 980.03 3414.34 980.28 3415.52 980.54 3417.8 981.06 3420.07 981.57 3422.35 982.09 3424.26 982.52 3424.62 982.6 3426.9 983.12 3429.17 983.63 3431.45 984.14 3433.72 984.66 3434.18 984.76 3435.99 985.17 3438.27 985.69 3440.54 986.2 3442.82 986.71 3444.1 987.01 3445.09 987.23 3447.37 987.74 3449.64 988.26 3451.91 988.77 3454.03 989.25 3454.19 989.29 3456.47 989.8 3458.74 990.31 3506.38 1001.09" style="fill:none;stroke:#231f20;stroke-linecap:round;stroke-linejoin:round;stroke-width:4px"/><polygon points="3389.99 918.3 3439.89 913.95 3442.15 913.76 3444.42 913.56 3446.69 913.36 3448.96 913.17 3451.23 912.97 3453.49 912.89 3455.77 913.45 3457.43 914.57 3458.05 915.07 3459.83 916.88 3460.35 917.41 3462.1 919.19 3462.64 919.74 3464.38 921.5 3464.93 922.07 3466.65 923.82 3467.22 924.4 3468.93 926.13 3469.51 926.73 3471.2 928.44 3471.8 929.06 3473.47 930.75 3474.09 931.39 3475.74 933.07 3476.38 933.72 3478.01 935.38 3478.67 936.05 3480.29 937.69 3480.96 938.38 3482.56 940 3483.25 940.71 3484.84 942.32 3485.55 943.04 3487.11 944.63 3487.84 945.37 3489.38 946.94 3490.13 947.7 3491.66 949.25 3492.42 950.03 3493.93 951.56 3494.71 952.36 3496.2 953.88 3497 954.69 3498.48 956.19 3499.29 957.02 3500.75 958.5 3501.58 959.35 3503.02 960.81 3503.87 961.68 3505.3 963.12 3506.16 964.01 3507.57 965.44 3508.45 966.34 3509.84 967.75 3510.74 968.67 3512.12 970.06 3513.04 971 3514.39 972.37 3515.32 973.33 3516.66 974.68 3517.62 975.66 3518.93 977 3519.91 977.99 3521.21 979.31 3522.2 980.32 3523.48 981.62 3524.49 982.65 3525.76 983.93 3526.78 985.04 3527.96 986.25 3529.08 987.59 3529.99 988.56 3531.37 990.65 3531.56 990.88 3531.38 991.4 3529.12 992.39 3526.85 992.27 3524.58 991.9 3522.3 991.47 3520.14 990.98 3520.03 990.96 3517.75 990.44 3515.48 989.93 3513.2 989.42 3510.93 988.9 3510.22 988.74 3508.65 988.39 3506.38 987.87 3454.07 976.05 3451.79 975.53 3450.69 975.28 3449.52 975.02 3447.25 974.51 3444.97 973.99 3442.7 973.48 3440.77 973.04 3440.42 972.96 3438.15 972.45 3435.87 971.93 3433.6 971.42 3431.32 970.9 3430.85 970.8 3429.05 970.39 3426.78 969.88 3424.5 969.36 3422.23 968.85 3420.93 968.55 3419.95 968.34 3417.68 967.82 3415.4 967.31 3413.13 966.79 3411 966.31 3410.85 966.28 3408.58 965.76 3406.31 965.25 3404.03 964.74 3401.76 964.22 3401.08 964.07 3399.49 963.71 3397.21 963.19 3394.94 962.68 3392.66 962.16 3391.16 961.83 3390.39 961.65 3388.11 960.93 3385.93 959.54 3385.83 959.44 3384.22 957.22 3383.53 956.22 3382.63 954.9 3381.23 952.92 3380.99 952.59 3379.34 950.27 3378.93 949.69 3377.69 947.95 3376.63 946.45 3376.05 945.63 3374.4 943.32 3374.33 943.22 3372.75 941 3372.03 939.99 3371.1 938.68 3369.73 936.76 3369.45 936.36 3367.8 934.04 3367.43 933.53 3366.16 931.73 3365.13 930.29 3364.51 929.41 3362.86 927.09 3362.84 927.05 3361.47 924.77 3361.12 922.44 3362.78 921.18 3365.05 920.55 3367.31 920.28 3369.58 920.07 3370.08 920.03 3371.85 919.87 3374.12 919.68 3376.39 919.48 3378.65 919.28 3380.92 919.08 3383.19 918.89 3385.46 918.69 3387.72 918.49 3389.99 918.3" style="fill:none;stroke:#231f20;stroke-linecap:round;stroke-linejoin:round;stroke-width:4px"/><polygon points="3388.74 905.47 3435.23 901.43 3437.5 901.23 3439.77 901.03 3442.04 900.83 3443.59 900.7 3444.31 900.63 3446.57 900.27 3448.83 899.02 3449.32 898.32 3449.24 895.98 3448.79 894.55 3448.53 893.66 3447.69 891.33 3446.85 889 3446.46 887.94 3446.01 886.68 3445.16 884.36 3444.33 882.03 3444.13 881.5 3443.49 879.7 3442.64 877.38 3441.8 875.06 3441.8 875.05 3440.96 872.73 3440.12 870.4 3439.48 868.62 3439.28 868.08 3438.44 865.75 3437.6 863.43 3437.15 862.19 3436.76 861.1 3435.92 858.78 3435.07 856.45 3434.82 855.75 3434.24 854.13 3433.39 851.8 3432.55 849.48 3432.49 849.31 3431.71 847.15 3430.87 844.83 3430.16 842.87 3430.03 842.5 3429.19 840.18 3428.35 837.85 3427.84 836.43 3427.51 835.53 3426.67 833.2 3425.83 830.88 3425.51 830 3424.98 828.55 3424.14 826.23 3423.3 823.9 3423.18 823.56 3422.46 821.58 3421.63 819.25 3420.85 817.12 3420.78 816.93 3419.94 814.6 3419.1 812.28 3418.52 810.68 3418.26 809.95 3417.42 807.63 3416.58 805.3 3416.2 804.24 3415.74 802.98 3414.9 800.65 3414.06 798.33 3413.86 797.81 3413.22 796 3412.37 793.67 3411.54 791.37 3411.53 791.35 3410.69 789.02 3409.85 786.7 3409.21 784.93 3409.01 784.37 3408.17 782.05 3407.33 779.72 3406.88 778.49 3406.49 777.4 3405.65 775.07 3404.81 772.75 3404.55 772.05 3403.96 770.42 3403.12 768.1 3402.28 765.77 3402.23 765.62 3401.45 763.45 3400.6 761.12 3399.9 759.18 3399.76 758.8 3398.92 756.47 3398.08 754.15 3397.57 752.74 3397.24 751.82 3396.4 749.5 3395.56 747.17 3395.24 746.3 3394.68 744.85 3393.44 742.52 3392.93 741.95 3390.65 740.93 3388.39 740.77 3386.11 740.79 3383.84 740.82 3381.58 740.84 3379.31 740.87 3377.04 740.9 3374.77 740.93 3372.5 740.96 3370.23 740.99 3367.96 741.02 3365.69 741.04 3363.42 741.07 3361.15 741.1 3358.88 741.13 3356.61 741.16 3354.34 741.23 3352.07 741.57 3350.03 742.92 3349.82 743.42 3349.43 745.26 3349.36 747.59 3349.4 749.92 3349.44 752.25 3349.48 754.59 3349.52 756.92 3349.56 759.25 3349.6 761.59 3349.64 763.92 3349.67 766.25 3349.72 768.58 3349.76 770.91 3349.79 773.25 3349.83 775.58 3349.87 777.91 3349.91 780.25 3349.95 782.58 3349.99 784.91 3350.03 787.24 3350.07 789.57 3350.11 791.91 3350.15 794.24 3350.19 796.57 3350.23 798.9 3350.27 801.24 3350.3 803.57 3350.34 805.9 3350.39 808.23 3350.42 810.56 3350.44 811.29 3350.47 812.9 3350.51 815.23 3350.54 817.56 3350.58 819.89 3350.62 822.23 3350.66 824.56 3350.7 826.89 3350.74 829.23 3350.78 831.56 3350.82 833.89 3350.86 836.22 3350.9 838.55 3350.94 840.89 3350.98 843.22 3351.02 845.55 3351.06 847.88 3351.09 850.22 3351.14 852.55 3351.18 854.88 3351.22 857.21 3351.25 859.55 3351.29 861.88 3351.33 864.21 3351.37 866.54 3351.41 868.88 3351.45 871.21 3351.49 873.54 3351.53 875.87 3351.57 878.21 3351.61 880.54 3351.65 882.87 3351.69 885.2 3351.73 887.54 3351.77 889.87 3351.8 892.2 3351.85 894.53 3351.89 896.86 3351.93 899.2 3351.96 901.53 3352.06 903.86 3352.55 906.19 3353.58 907.52 3355.86 908.18 3358.13 908.12 3360.39 907.93 3362.66 907.74 3364.93 907.54 3367.2 907.34 3369.47 907.15 3371.73 906.95 3374 906.75 3376.27 906.55 3378.54 906.36 3380.8 906.16 3383.07 905.96 3383.7 905.91 3385.34 905.76 3387.61 905.57 3388.74 905.47" style="fill:none;stroke:#231f20;stroke-linecap:round;stroke-linejoin:round;stroke-width:4px"/><polygon points="3855.87 1030.39 3856.29 1031.88 3856.93 1034.21 3857.57 1036.54 3858.22 1038.86 3858.86 1041.19 3859.51 1043.52 3860.15 1045.84 3860.56 1047.33 3860.8 1048.17 3861.44 1050.5 3862.09 1052.82 3862.73 1055.15 3862.91 1055.8 3863.38 1057.48 3864.02 1059.81 3864.66 1062.13 3865.26 1064.27 3865.31 1064.46 3865.95 1066.79 3866.6 1069.11 3867.24 1071.44 3867.6 1072.74 3867.89 1073.77 3868.53 1076.09 3869.18 1078.42 3869.82 1080.75 3869.95 1081.21 3870.47 1083.07 3871.11 1085.4 3871.76 1087.73 3872.3 1089.67 3872.4 1090.05 3873.05 1092.38 3873.69 1094.71 3874.34 1097.04 3874.64 1098.14 3874.98 1099.36 3875.63 1101.69 3876.27 1104.02 3876.92 1106.34 3876.99 1106.61 3877.56 1108.67 3878.2 1111 3878.85 1113.32 3879.34 1115.08 3879.49 1115.65 3880.14 1117.98 3880.78 1120.31 3881.43 1122.63 3881.68 1123.55 3882.07 1124.96 3882.72 1127.28 3883.36 1129.61 3884.01 1131.94 3884.03 1132.02 3884.66 1134.27 3885.3 1136.59 3885.94 1138.92 3886.38 1140.49 3886.59 1141.25 3887.27 1143.57 3888.3 1145.9 3888.7 1146.43 3890.98 1147.62 3893.25 1147.84 3895.52 1147.85 3897.79 1147.85 3900.06 1147.85 3902.33 1147.85 3904.6 1147.85 3906.87 1147.85 3909.14 1147.85 3911.41 1147.85 3913.68 1147.85 3915.95 1147.85 3918.22 1147.85 3920.49 1147.85 3922.76 1147.85 3925.03 1147.85 3927.3 1147.85 3929.56 1147.85 3930.53 1147.85 3931.84 1147.85 3934.11 1147.85 3936.38 1147.85 3938.64 1147.85 3940.91 1147.85 3943.19 1147.85 3945.45 1147.84 3947.73 1147.85 3950 1147.85 3952.27 1147.84 3954.54 1147.84 3956.8 1147.84 3959.07 1147.84 3961.34 1147.84 3963.61 1147.84 3965.89 1147.84 3968.15 1147.84 3970.42 1147.84 3972.69 1147.84 3974.96 1147.84 3977.23 1147.84 3979.5 1147.84 3981.77 1147.84 3984.04 1147.84 3986.31 1147.84 3988.58 1147.84 3990.85 1147.84 3993.12 1147.84 3995.39 1147.84 3997.66 1147.84 3999.93 1147.84 4002.2 1147.84 4004.47 1147.84 4006.74 1147.84 4009.01 1147.84 4011.28 1147.84 4013.55 1147.84 4015.82 1147.84 4018.09 1147.84 4020.36 1147.84 4022.63 1147.84 4024.89 1147.84 4027.16 1147.84 4029.43 1147.84 4031.71 1147.84 4033.98 1147.84 4036.24 1147.84 4038.52 1147.84 4040.78 1147.84 4043.05 1147.84 4045.32 1147.84 4047.59 1147.84 4049.86 1147.84 4052.13 1147.84 4054.4 1147.83 4056.67 1147.84 4058.94 1147.83 4061.21 1147.83 4063.48 1147.84 4065.75 1147.83 4068.02 1147.83 4070.29 1147.83 4072.56 1147.83 4074.83 1147.83 4077.1 1147.83 4079.37 1147.83 4081.64 1147.83 4083.91 1147.83 4086.18 1147.83 4088.45 1147.83 4090.72 1147.83 4092.99 1147.83 4095.26 1147.83 4097.53 1147.83 4099.8 1147.83 4102.07 1147.83 4104.34 1147.83 4106.61 1147.83 4108.88 1147.83 4111.15 1147.83 4113.42 1147.83 4115.69 1147.83 4117.96 1147.83 4120.22 1147.83 4122.5 1147.83 4124.76 1147.83 4127.03 1147.83 4129.31 1147.83 4131.57 1147.83 4133.85 1147.83 4136.11 1147.83 4138.38 1147.83 4140.65 1147.83 4142.92 1147.83 4145.19 1147.83 4147.46 1147.83 4149.73 1147.83 4152 1147.82 4154.27 1147.82 4156.54 1147.82 4158.81 1147.82 4161.08 1147.82 4163.35 1147.82 4165.62 1147.82 4167.89 1147.82 4170.16 1147.82 4172.43 1147.82 4174.7 1147.82 4176.97 1147.81 4179.24 1147.79 4181.51 1147.39 4183.59 1145.55 4182.81 1143.23 4181.49 1140.91 4181.45 1140.84 4180 1138.59 4179.14 1137.23 4178.52 1136.27 4177.05 1133.95 4176.84 1133.62 4175.57 1131.63 4174.54 1130.02 4174.09 1129.31 4172.61 1126.99 4172.23 1126.41 4171.13 1124.67 4169.93 1122.8 4169.64 1122.35 4168.17 1120.03 4167.63 1119.19 4166.69 1117.71 4165.33 1115.58 4165.21 1115.39 4163.73 1113.07 4163.03 1111.98 4162.24 1110.75 4160.77 1108.43 4160.72 1108.37 4159.29 1106.12 4158.42 1104.65 4157.89 1103.8 4157.53 1101.47 4158.38 1100.01 4158.99 1099.12 4160.63 1098.01 4162.59 1096.76 4162.89 1096.57 4165.15 1095.61 4167.42 1095.99 4168.16 1096.7 4169.72 1098.5 4170.04 1099.02 4171.53 1101.34 4172.02 1102.11 4173.01 1103.66 4174.32 1105.71 4174.48 1105.98 4175.96 1108.3 4176.62 1109.32 4177.45 1110.62 4178.92 1112.93 4178.93 1112.94 4180.4 1115.26 4181.23 1116.54 4181.89 1117.58 4183.36 1119.89 4183.52 1120.15 4184.85 1122.21 4185.83 1123.75 4186.32 1124.53 4187.81 1126.85 4188.13 1127.36 4189.28 1129.17 4190.43 1130.97 4190.77 1131.49 4192.24 1133.81 4192.73 1134.58 4193.73 1136.13 4195.04 1138.19 4195.36 1138.45 4197.33 1140.01 4199.59 1139.44 4200.38 1138.4 4201.83 1136.52 4202.13 1136.05 4203.62 1133.71 4204.07 1132.99 4205.1 1131.36 4206.31 1129.46 4206.59 1129.01 4208.08 1126.67 4208.54 1125.93 4209.56 1124.32 4210.78 1122.39 4211.05 1121.97 4212.53 1119.63 4213.02 1118.86 4214.02 1117.28 4215.26 1115.33 4215.51 1114.94 4216.99 1112.59 4217.5 1111.8 4218.48 1110.24 4219.73 1108.27 4219.97 1107.9 4221.45 1105.55 4221.97 1104.73 4222.94 1103.2 4224.21 1101.2 4224.43 1100.86 4225.92 1098.52 4226.45 1097.67 4227.4 1096.17 4228.69 1094.14 4228.89 1093.82 4230.37 1091.47 4230.92 1090.61 4231.86 1089.13 4233.16 1087.08 4233.35 1086.78 4234.84 1084.44 4235.4 1083.54 4236.32 1082.09 4237.64 1080.01 4237.81 1079.74 4239.3 1077.4 4239.87 1076.48 4240.78 1075.05 4242.11 1072.95 4242.27 1072.7 4243.75 1070.36 4244.35 1069.42 4245.24 1068.01 4246.59 1065.88 4246.73 1065.67 4248.21 1063.32 4248.82 1062.35 4249.7 1060.97 4251.06 1058.82 4251.19 1058.63 4252.67 1056.28 4253.3 1055.29 4254.16 1053.93 4255.54 1051.76 4255.65 1051.59 4257.13 1049.24 4257.77 1048.22 4258.62 1046.9 4260.01 1044.69 4260.1 1044.55 4261.59 1042.2 4262.25 1041.16 4263.08 1039.86 4264.49 1037.63 4264.57 1037.51 4266.05 1035.16 4266.73 1034.1 4267.54 1032.82 4268.96 1030.57 4269.02 1030.47 4270.51 1028.13 4271.2 1027.04 4272 1025.78 4273.44 1023.5 4273.48 1023.43 4274.97 1021.09 4275.68 1019.97 4276.45 1018.74 4277.91 1016.44 4277.94 1016.39 4279.11 1014.05 4278.94 1011.72 4277.86 1010.89 4275.59 1009.93 4273.74 1009.44 4273.31 1009.34 4271.04 1008.82 4268.76 1008.31 4266.49 1007.8 4264.21 1007.28 4263.81 1007.19 4261.94 1006.77 4259.67 1006.25 4257.39 1005.74 4255.12 1005.22 4253.9 1004.95 4252.84 1004.71 4250.57 1004.2 4248.29 1003.68 4246.02 1003.17 4243.97 1002.71 4243.74 1002.65 4241.47 1002.14 4239.2 1001.63 4236.92 1001.11 4234.65 1000.6 4234.05 1000.46 4232.37 1000.08 4230.1 999.57 4227.82 999.05 4225.55 998.54 4224.13 998.22 4223.28 998.03 4221 997.51 4218.73 996.87 4216.75 995.96 4216.45 995.55 4215.66 993.63 4215.92 991.3 4216.38 989.22 4216.45 988.96 4217.26 986.62 4218.62 984.81 4220.88 984.43 4223.16 984.79 4225.43 985.3 4227.7 985.82 4229.98 986.33 4230.72 986.5 4232.25 986.85 4234.53 987.36 4236.8 987.87 4239.07 988.39 4240.64 988.74 4241.35 988.9 4243.63 989.42 4245.9 989.93 4248.17 990.44 4250.44 990.96 4250.56 990.98 4252.72 991.47 4255 991.9 4257.27 992.27 4259.54 992.39 4261.8 991.4 4261.98 990.88 4261.79 990.65 4260.41 988.56 4259.5 987.59 4258.38 986.25 4257.2 985.04 4256.18 983.93 4254.91 982.65 4253.9 981.62 4252.62 980.32 4251.63 979.31 4250.33 977.99 4249.35 977 4248.04 975.66 4247.08 974.68 4245.75 973.33 4244.81 972.37 4243.46 971 4242.54 970.06 4241.16 968.67 4240.26 967.75 4238.88 966.34 4237.99 965.44 4236.59 964.01 4235.72 963.12 4234.3 961.68 4233.44 960.81 4232.01 959.35 4231.17 958.5 4229.71 957.02 4228.9 956.19 4227.42 954.69 4226.63 953.88 4225.13 952.36 4224.35 951.56 4222.84 950.03 4222.07 949.25 4220.55 947.7 4219.8 946.94 4218.26 945.37 4217.53 944.63 4215.97 943.04 4215.26 942.32 4213.68 940.71 4212.98 940 4211.38 938.38 4210.71 937.69 4209.09 936.05 4208.44 935.38 4206.8 933.72 4206.17 933.07 4204.51 931.39 4203.89 930.75 4202.22 929.06 4201.62 928.44 4199.93 926.73 4199.34 926.13 4197.64 924.4 4197.07 923.82 4195.35 922.07 4194.8 921.5 4193.06 919.74 4192.52 919.19 4190.77 917.41 4190.25 916.88 4188.48 915.07 4187.85 914.57 4186.19 913.45 4183.92 912.89 4181.65 912.97 4179.38 913.17 4177.11 913.36 4174.84 913.56 4172.57 913.76 4170.31 913.95 4168.04 914.15 4165.77 914.35 4163.5 914.55 4161.23 914.74 4160.39 914.82 4158.97 914.94 4156.7 915.14 4154.43 915.34 4152.16 915.32 4150.77 914.91 4149.88 914.25 4149.16 912.59 4148.78 910.26 4148.6 907.93 4148.69 905.59 4149.78 903.63 4150.39 903.25 4152.05 902.73 4154.32 902.41 4156.59 902.21 4158.85 902.02 4161.12 901.82 4163.39 901.62 4165.65 901.43 4167.92 901.23 4170.19 901.03 4172.46 900.83 4174.02 900.7 4174.73 900.63 4177 900.27 4179.25 899.02 4179.74 898.32 4179.66 895.98 4179.21 894.55 4178.95 893.66 4178.11 891.33 4177.27 889 4176.88 887.94 4176.43 886.68 4175.59 884.36 4174.75 882.03 4174.55 881.5 4173.9 879.7 4173.07 877.38 4172.22 875.06 4172.22 875.05 4171.38 872.73 4170.54 870.4 4169.9 868.62 4169.7 868.08 4168.86 865.75 4168.02 863.43 4167.57 862.19 4167.18 861.1 4166.34 858.78 4165.49 856.45 4165.24 855.75 4164.66 854.13 4163.81 851.8 4162.97 849.48 4162.91 849.31 4162.13 847.15 4161.29 844.83 4160.58 842.87 4160.45 842.5 4159.61 840.18 4158.77 837.85 4158.26 836.43 4157.93 835.53 4157.09 833.2 4156.25 830.88 4155.93 830 4155.4 828.55 4154.56 826.23 4153.73 823.9 4153.6 823.56 4152.88 821.58 4152.05 819.25 4151.27 817.12 4151.2 816.93 4150.36 814.6 4149.52 812.28 4148.95 810.68 4148.68 809.95 4147.84 807.63 4147 805.3 4146.62 804.24 4146.16 802.98 4145.32 800.65 4144.48 798.33 4144.29 797.81 4143.64 796 4142.79 793.67 4141.96 791.37 4141.95 791.35 4141.11 789.02 4140.27 786.7 4139.63 784.93 4139.43 784.37 4138.59 782.05 4137.75 779.72 4137.3 778.49 4136.91 777.4 4136.07 775.07 4135.23 772.75 4134.98 772.05 4134.38 770.42 4133.55 768.1 4132.7 765.77 4132.65 765.62 4131.86 763.45 4131.02 761.12 4130.32 759.18 4130.18 758.8 4129.34 756.47 4128.5 754.15 4127.99 752.74 4127.66 751.82 4126.82 749.5 4125.98 747.17 4125.66 746.3 4125.1 744.85 4123.86 742.52 4123.36 741.95 4121.07 740.93 4118.8 740.77 4116.54 740.79 4114.27 740.82 4112 740.84 4109.73 740.87 4107.46 740.9 4105.19 740.93 4102.92 740.96 4100.65 740.99 4098.38 741.02 4096.11 741.04 4093.84 741.07 4091.57 741.1 4089.3 741.13 4087.03 741.16 4084.76 741.23 4082.49 741.57 4080.45 742.92 4080.24 743.42 4079.84 745.26 4079.78 747.59 4079.82 749.92 4079.86 752.25 4079.9 754.59 4079.94 756.92 4079.98 759.25 4080.02 761.59 4080.06 763.92 4080.09 766.25 4080.14 768.58 4080.18 770.91 4080.21 773.25 4080.25 775.58 4080.29 777.91 4080.33 780.25 4080.37 782.58 4080.41 784.91 4080.45 787.24 4080.49 789.57 4080.53 791.91 4080.57 794.24 4080.61 796.57 4080.65 798.9 4080.69 801.24 4080.72 803.57 4080.76 805.9 4080.81 808.23 4080.85 810.56 4080.86 811.29 4080.89 812.9 4080.93 815.23 4080.97 817.56 4081 819.89 4081.04 822.23 4081.09 824.56 4081.13 826.89 4081.16 829.23 4081.2 831.56 4081.24 833.89 4081.28 836.22 4081.32 838.55 4081.36 840.89 4081.4 843.22 4081.44 845.55 4081.48 847.88 4081.51 850.22 4081.56 852.55 4081.59 854.88 4081.64 857.21 4081.67 859.55 4081.72 861.88 4081.75 864.21 4081.79 866.54 4081.83 868.88 4081.87 871.21 4081.91 873.54 4081.95 875.87 4081.99 878.21 4082.03 880.54 4082.07 882.87 4082.11 885.2 4082.15 887.54 4082.19 889.87 4082.23 892.2 4082.27 894.53 4082.31 896.86 4082.35 899.2 4082.39 901.53 4082.49 903.86 4082.97 906.19 4084 907.52 4086.28 908.18 4088.55 908.12 4090.82 907.93 4093.08 907.74 4095.35 907.54 4097.62 907.34 4099.89 907.15 4102.15 906.95 4104.42 906.75 4106.69 906.55 4108.96 906.36 4111.23 906.16 4113.49 905.96 4114.13 905.91 4115.76 905.76 4118.03 905.57 4120.3 905.37 4122.56 905.17 4124.83 904.98 4127.1 904.78 4129.37 904.58 4131.64 904.38 4133.91 904.27 4136.18 904.64 4137.41 905.7 4138.16 908.02 4138.43 910.35 4138.52 911.97 4138.55 912.68 4138.52 913.01 4138.19 915.02 4136.29 916.53 4134.02 917.08 4131.76 917.31 4130.44 917.42 4129.49 917.51 4127.22 917.7 4124.95 917.9 4122.68 918.1 4120.41 918.3 4118.14 918.49 4115.88 918.69 4113.61 918.89 4111.34 919.08 4109.07 919.28 4106.81 919.48 4104.54 919.68 4102.27 919.87 4100.5 920.03 4100 920.07 4097.73 920.28 4095.47 920.55 4093.2 921.18 4091.54 922.44 4091.89 924.77 4093.26 927.05 4093.28 927.09 4094.93 929.41 4095.56 930.29 4096.58 931.73 4097.85 933.53 4098.22 934.04 4099.87 936.36 4100.15 936.76 4101.52 938.68 4102.45 939.99 4103.17 941 4104.75 943.22 4104.82 943.32 4106.47 945.63 4107.05 946.45 4108.11 947.95 4109.35 949.69 4109.76 950.27 4111.41 952.59 4111.65 952.92 4113.06 954.9 4113.95 956.22 4114.64 957.22 4116.25 959.44 4116.35 959.54 4118.53 960.93 4120.81 961.65 4121.58 961.83 4123.08 962.16 4125.36 962.68 4127.63 963.19 4129.9 963.71 4131.5 964.07 4132.18 964.22 4134.45 964.74 4136.73 965.25 4139 965.76 4141.27 966.28 4141.42 966.31 4143.55 966.79 4145.83 967.31 4148.1 967.82 4150.37 968.34 4151.35 968.55 4152.65 968.85 4154.92 969.36 4157.2 969.88 4159.47 970.39 4161.27 970.8 4161.74 970.9 4164.02 971.42 4166.3 971.93 4168.57 972.45 4170.85 972.96 4171.19 973.04 4173.12 973.48 4175.39 973.99 4177.67 974.51 4179.94 975.02 4181.11 975.28 4182.21 975.53 4184.49 976.05 4186.77 976.56 4189.04 977.08 4191.03 977.52 4191.31 977.59 4193.59 978.1 4195.86 978.62 4198.14 979.13 4200.41 979.65 4200.95 979.77 4202.69 980.2 4204.97 981.1 4206.17 982.05 4206.73 984.38 4206.38 986.72 4205.81 989.05 4205.06 991.3 4204.99 991.4 4202.8 992.9 4200.53 992.83 4198.26 992.37 4195.98 991.86 4194.37 991.49 4193.71 991.34 4191.44 990.83 4189.16 990.31 4186.88 989.8 4184.61 989.29 4184.45 989.25 4182.34 988.77 4180.06 988.26 4177.79 987.74 4175.51 987.23 4174.52 987.01 4173.24 986.71 4170.96 986.2 4168.69 985.69 4166.42 985.17 4164.61 984.76 4164.14 984.66 4161.86 984.14 4159.59 983.63 4157.32 983.12 4155.04 982.6 4154.68 982.52 4152.77 982.09 4150.49 981.57 4148.22 981.06 4145.94 980.54 4144.76 980.28 4143.67 980.03 4141.4 979.52 4139.12 979 4136.85 978.49 4134.84 978.03 4134.58 977.98 4132.3 977.46 4130.02 976.95 4127.75 976.43 4125.48 975.92 4124.92 975.79 4123.2 975.4 4120.93 975.05 4118.66 975.33 4118.07 975.85 4117.23 978.2 4117.11 980.53 4117.11 982.86 4117.13 985.19 4117.15 987.53 4117.17 989.86 4117.19 992.19 4117.22 994.52 4117.24 996.86 4117.26 999.19 4117.28 1001.52 4117.31 1003.85 4117.32 1006.19 4117.24 1008.52 4116.92 1010.86 4116.73 1013.07 4116.72 1013.19 4116.74 1013.28 4117.09 1015.52 4118.24 1017.84 4119.06 1019.12 4119.72 1020.16 4121.2 1022.48 4121.36 1022.73 4122.68 1024.8 4123.66 1026.34 4124.16 1027.12 4125.64 1029.44 4125.96 1029.95 4127.12 1031.76 4128.27 1033.56 4128.6 1034.08 4130.08 1036.4 4130.57 1037.16 4131.56 1038.72 4132.87 1040.77 4133.04 1041.04 4134.52 1043.36 4135.18 1044.38 4136 1045.67 4137.48 1047.99 4137.48 1047.99 4138.96 1050.31 4139.78 1051.6 4140.44 1052.63 4141.93 1054.95 4142.08 1055.2 4143.4 1057.27 4144.39 1058.81 4144.88 1059.59 4146.36 1061.91 4146.69 1062.42 4147.84 1064.23 4148.99 1066.03 4149.32 1066.55 4150.8 1068.87 4151.29 1069.64 4152.28 1071.19 4153.6 1073.24 4153.76 1073.51 4155.24 1075.83 4155.9 1076.85 4156.72 1078.15 4158.2 1080.46 4158.2 1080.47 4159.52 1082.79 4159.71 1085.12 4158.26 1087.14 4157.97 1087.46 4156 1088.73 4154.27 1089.83 4153.75 1090.17 4151.48 1090.78 4149.2 1089.89 4149.2 1089.88 4147.47 1087.56 4146.91 1086.72 4145.96 1085.24 4144.6 1083.11 4144.48 1082.92 4143.01 1080.6 4142.3 1079.5 4141.52 1078.28 4140.04 1075.96 4140 1075.9 4138.56 1073.64 4137.7 1072.29 4137.08 1071.33 4135.6 1069.01 4135.4 1068.68 4134.12 1066.69 4133.09 1065.07 4132.64 1064.37 4131.16 1062.05 4130.79 1061.46 4129.68 1059.73 4128.49 1057.86 4128.2 1057.41 4126.72 1055.09 4126.18 1054.25 4125.24 1052.77 4123.89 1050.64 4123.76 1050.45 4122.28 1048.13 4121.58 1047.03 4120.8 1045.81 4119.32 1043.49 4119.28 1043.42 4117.84 1041.17 4116.97 1039.82 4116.36 1038.85 4114.88 1036.54 4114.67 1036.21 4113.4 1034.22 4112.37 1032.6 4111.92 1031.9 4110.44 1029.58 4110.07 1028.99 4108.96 1027.26 4107.77 1025.38 4107.47 1024.94 4105.68 1022.62 4105.47 1022.42 4103.19 1021.32 4100.91 1021.08 4098.65 1021.05 4096.38 1021.03 4094.11 1021 4091.84 1020.98 4089.57 1020.96 4087.3 1020.94 4085.03 1020.92 4082.76 1020.89 4080.49 1020.87 4078.22 1020.85 4075.95 1020.83 4073.68 1020.8 4071.41 1020.78 4069.14 1020.76 4066.87 1020.74 4064.6 1020.72 4062.33 1020.69 4061.71 1020.69 4060.06 1020.67 4057.79 1020.65 4055.52 1020.63 4053.25 1020.61 4050.98 1020.58 4048.71 1020.56 4046.44 1020.54 4044.17 1020.51 4041.9 1020.49 4039.63 1020.47 4037.36 1020.45 4035.09 1020.43 4032.82 1020.4 4030.55 1020.38 4028.28 1020.36 4026.01 1020.34 4023.74 1020.32 4021.47 1020.29 4019.2 1020.27 4016.93 1020.25 4014.66 1020.23 4012.39 1020.2 4010.12 1020.18 4007.85 1020.16 4005.58 1020.14 4003.31 1020.12 4001.04 1020.09 3998.77 1020.07 3996.5 1020.05 3994.23 1020.03 3991.96 1020 3989.69 1019.98 3987.42 1019.96 3985.15 1019.94 3982.88 1019.92 3980.61 1019.89 3978.34 1019.87 3976.07 1019.85 3973.8 1019.83 3971.53 1019.81 3969.26 1019.78 3966.99 1019.76 3964.72 1019.74 3962.45 1019.72 3960.18 1019.69 3957.91 1019.67 3955.64 1019.65 3953.37 1019.63 3951.1 1019.6 3948.83 1019.58 3946.57 1019.56 3944.29 1019.54 3942.02 1019.52 3939.76 1019.49 3938.04 1019.48 3937.48 1019.47 3935.21 1019.45 3932.94 1019.43 3930.67 1019.4 3928.4 1019.38 3926.13 1019.36 3923.86 1019.34 3921.59 1019.32 3919.32 1019.29 3917.05 1019.27 3914.78 1019.25 3912.51 1019.23 3910.25 1019.21 3907.97 1019.18 3905.7 1019.16 3903.43 1019.14 3901.16 1019.12 3898.89 1019.09 3896.63 1019.07 3894.35 1019.05 3892.09 1019.03 3889.82 1019 3887.55 1018.98 3885.27 1018.96 3883 1018.94 3880.74 1018.91 3878.46 1018.89 3876.2 1018.87 3873.92 1018.85 3871.65 1018.83 3869.38 1018.8 3867.11 1018.78 3864.85 1018.76 3862.57 1018.74 3860.3 1018.72 3858.03 1018.77 3855.77 1019.16 3854.19 1020.24 3853.9 1022.57 3854.36 1024.9 3854.99 1027.23 3855.64 1029.56 3855.87 1030.39" style="fill:none;stroke:#231f20;stroke-linecap:round;stroke-linejoin:round;stroke-width:4px"/><path d="M1894.76,910.76c-4.54.4-6.26,2.44-5.86,7l0,.89c.39,4.53,2.43,6.25,7,5.86l151.22-13c4.53-.39,6.25-2.44,5.86-7,0-.29-.05-.59-.08-.88-.39-4.54-2.43-6.26-7-5.87Z" style="fill:none;stroke:#231f20;stroke-linecap:round;stroke-linejoin:round;stroke-width:4px"/><polygon points="3390.33 1570.61 3440.23 1566.27 3442.49 1566.07 3444.76 1565.87 3447.03 1565.67 3449.3 1565.48 3451.57 1565.28 3453.84 1565.2 3456.11 1565.76 3457.77 1566.88 3458.4 1567.38 3460.17 1569.19 3460.69 1569.72 3462.44 1571.5 3462.98 1572.05 3464.72 1573.82 3465.27 1574.38 3466.99 1576.13 3467.56 1576.71 3469.26 1578.44 3469.85 1579.04 3471.54 1580.75 3472.14 1581.37 3473.81 1583.06 3474.43 1583.7 3476.09 1585.38 3476.72 1586.03 3478.36 1587.69 3479.01 1588.36 3480.63 1590 3481.3 1590.69 3482.9 1592.31 3483.59 1593.02 3485.18 1594.63 3485.89 1595.35 3487.45 1596.94 3488.18 1597.68 3489.72 1599.25 3490.47 1600.01 3492 1601.56 3492.76 1602.34 3494.27 1603.88 3495.05 1604.67 3496.54 1606.19 3497.34 1607 3498.82 1608.5 3499.63 1609.33 3501.09 1610.81 3501.93 1611.66 3503.36 1613.12 3504.21 1613.99 3505.64 1615.44 3506.51 1616.32 3507.91 1617.75 3508.79 1618.65 3510.18 1620.06 3511.08 1620.98 3512.46 1622.37 3513.38 1623.31 3514.73 1624.68 3515.66 1625.64 3517 1627 3517.96 1627.97 3519.28 1629.31 3520.25 1630.3 3521.55 1631.62 3522.54 1632.63 3523.82 1633.93 3524.83 1634.96 3526.1 1636.24 3527.12 1637.36 3528.3 1638.56 3529.42 1639.9 3530.33 1640.87 3531.71 1642.96 3531.9 1643.19 3531.72 1643.71 3529.46 1644.7 3527.19 1644.58 3524.92 1644.21 3522.64 1643.79 3520.47 1643.29 3520.36 1643.27 3518.09 1642.76 3515.82 1642.24 3513.54 1641.73 3511.27 1641.21 3510.55 1641.05 3508.99 1640.7 3506.72 1640.18 3454.41 1628.36 3452.13 1627.84 3451.03 1627.6 3449.86 1627.33 3447.59 1626.82 3445.31 1626.3 3443.04 1625.79 3441.11 1625.35 3440.76 1625.27 3438.49 1624.76 3436.21 1624.25 3433.94 1623.73 3431.66 1623.22 3431.19 1623.11 3429.39 1622.7 3427.12 1622.19 3424.84 1621.67 3422.57 1621.16 3421.26 1620.87 3420.29 1620.65 3418.02 1620.13 3415.74 1619.62 3413.47 1619.11 3411.34 1618.62 3411.2 1618.59 3408.92 1618.08 3406.65 1617.56 3404.37 1617.05 3402.1 1616.53 3401.42 1616.38 3399.83 1616.02 3397.55 1615.51 3395.28 1614.99 3393 1614.48 3391.5 1614.14 3390.73 1613.96 3388.45 1613.24 3386.27 1611.85 3386.17 1611.75 3384.56 1609.54 3383.87 1608.53 3382.97 1607.22 3381.57 1605.23 3381.33 1604.9 3379.68 1602.58 3379.27 1602 3378.03 1600.26 3376.97 1598.77 3376.39 1597.94 3374.74 1595.63 3374.67 1595.53 3373.09 1593.31 3372.37 1592.3 3371.44 1590.99 3370.07 1589.07 3369.79 1588.67 3368.14 1586.36 3367.78 1585.84 3366.5 1584.04 3365.47 1582.61 3364.85 1581.72 3363.2 1579.4 3363.18 1579.36 3361.81 1577.08 3361.46 1574.75 3363.12 1573.49 3365.39 1572.87 3367.65 1572.59 3369.92 1572.38 3370.42 1572.34 3372.19 1572.18 3374.46 1571.99 3376.73 1571.79 3378.99 1571.59 3381.26 1571.4 3383.53 1571.2 3385.8 1571 3388.06 1570.8 3390.33 1570.61" style="fill:#00aeef;stroke:#ec008c;stroke-linecap:round;stroke-linejoin:round;stroke-width:10px"/><line x1="1211.57" y1="1298.23" x2="1211.57" y2="1305.73" style="fill:none;stroke:#1d1d1b;stroke-miterlimit:10;stroke-width:2px"/><line x1="1211.57" y1="1321.7" x2="1211.57" y2="1377.6" style="fill:none;stroke:#1d1d1b;stroke-miterlimit:10;stroke-width:2px;stroke-dasharray:15.97127628326416,15.97127628326416"/><line x1="1211.57" y1="1385.58" x2="1211.57" y2="1393.08" style="fill:none;stroke:#1d1d1b;stroke-miterlimit:10;stroke-width:2px"/><circle cx="1211.57" cy="1392.71" r="7.52" style="fill:#1d1d1b"/><text transform="translate(1205.69 1287.82)" style="font-size:48px;fill:#1d1d1b;font-family:TimesNewRomanPS-ItalicMT, Times New Roman;font-style:italic">ze<tspan x="39.98" y="0" style="letter-spacing:-0.037109375em">r</tspan><tspan x="56.88" y="0">o contour</tspan></text><line x1="1345.57" y1="846.23" x2="1345.57" y2="853.73" style="fill:none;stroke:#1d1d1b;stroke-miterlimit:10;stroke-width:2px"/><line x1="1345.57" y1="869.7" x2="1345.57" y2="925.6" style="fill:none;stroke:#1d1d1b;stroke-miterlimit:10;stroke-width:2px;stroke-dasharray:15.97127628326416,15.97127628326416"/><line x1="1345.57" y1="933.58" x2="1345.57" y2="941.08" style="fill:none;stroke:#1d1d1b;stroke-miterlimit:10;stroke-width:2px"/><circle cx="1345.57" cy="940.71" r="7.52" style="fill:#1d1d1b"/><text transform="translate(1343.16 827.86)" style="font-size:48px;fill:#1d1d1b;font-family:TimesNewRomanPS-ItalicMT, Times New Roman;font-style:italic">guide p<tspan x="142.64" y="0" style="letter-spacing:-0.037109375em">r</tspan><tspan x="159.54" y="0">ofile</tspan></text><text transform="translate(1297.65 766.29)" style="font-size:48px;fill:#1d1d1b;font-family:TimesNewRomanPS-ItalicMT, Times New Roman;font-style:italic">iso-contour graph</text><line x1="1302.57" y1="781.23" x2="1302.57" y2="788.73" style="fill:none;stroke:#1d1d1b;stroke-miterlimit:10;stroke-width:2px"/><line x1="1302.57" y1="802.71" x2="1302.57" y2="907.59" style="fill:none;stroke:#1d1d1b;stroke-miterlimit:10;stroke-width:2px;stroke-dasharray:13.984042167663574,13.984042167663574"/><line x1="1302.57" y1="914.58" x2="1302.57" y2="922.08" style="fill:none;stroke:#1d1d1b;stroke-miterlimit:10;stroke-width:2px"/><circle cx="1302.57" cy="921.71" r="7.52" style="fill:#1d1d1b"/></svg>