<svg id="Layer_1" data-name="Layer 1" xmlns="http://www.w3.org/2000/svg" viewBox="0 0 4535.43 2551.18"><defs><style>.cls-1{font-size:60px;font-family:TimesNewRomanPS-BoldItalicMT, Times New Roman;font-weight:700;font-style:italic;}.cls-1,.cls-14,.cls-17,.cls-3{fill:#231f20;}.cls-2{letter-spacing:-0.09em;}.cls-3{font-size:60.76px;}.cls-17,.cls-3{font-family:TimesNewRomanPSMT, Times New Roman;}.cls-10,.cls-12,.cls-15,.cls-18,.cls-19,.cls-20,.cls-21,.cls-4,.cls-5,.cls-6,.cls-7,.cls-8{fill:none;}.cls-13,.cls-15,.cls-4{stroke:#414142;}.cls-12,.cls-18,.cls-19,.cls-20,.cls-21,.cls-4,.cls-5,.cls-6,.cls-7,.cls-8{stroke-miterlimit:10;}.cls-4{stroke-width:2px;}.cls-5{stroke:#e40787;}.cls-18,.cls-5{stroke-width:4px;}.cls-12,.cls-19,.cls-20,.cls-21,.cls-6,.cls-7,.cls-8{stroke:#6e6f71;}.cls-10,.cls-12,.cls-19,.cls-20,.cls-21,.cls-6,.cls-7,.cls-8{stroke-width:3px;}.cls-7{stroke-dasharray:4.99 4.99;}.cls-8{stroke-dasharray:5.07 5.07;}.cls-9{fill:#6e6f71;}.cls-10{stroke:#353535;}.cls-10,.cls-13,.cls-15{stroke-miterlimit:6;}.cls-11{fill:#353535;}.cls-12{stroke-dasharray:5 5;}.cls-13{fill:#fff;}.cls-14{font-size:54.81px;font-family:AdobeSongStd-Light-GBpc-EUC-H, Adobe Song Std;}.cls-16{letter-spacing:-0.04em;}.cls-17{font-size:33.14px;}.cls-18{stroke:#a7a9ac;}.cls-19{stroke-dasharray:5.09 5.09;}.cls-20{stroke-dasharray:5 5;}.cls-21{stroke-dasharray:4.94 4.94;}</style></defs><text class="cls-1" transform="translate(1021.29 1721.12)">Input<tspan x="33.4" y="72">(a)</tspan></text><text class="cls-1" transform="translate(3525.85 1721.12)">Output<tspan x="53.41" y="72">(c)</tspan></text><text class="cls-1" transform="translate(2201.68 1721.12)">z<tspan class="cls-2" x="23.35" y="0">T</tspan><tspan x="54.49" y="0">sSDFSlicer</tspan><tspan x="133.96" y="72">(b)</tspan></text><text class="cls-3" transform="translate(979.63 770.15)">Geometry</text><path class="cls-4" d="M1439.87,786.58c0,6.09-5.9,11-13.16,11H775.49c-7.27,0-13.16-4.93-13.16-11V709.82c0-6.08,5.89-11,13.16-11h651.22c7.26,0,13.16,4.94,13.16,11Z"/><rect class="cls-5" x="1994.46" y="867.59" width="752.1" height="502.63" rx="27.45"/><text class="cls-3" transform="translate(2227.93 767.13)">Read Block<tspan x="-65.83" y="248.55">Compute Frames</tspan><tspan x="-32.13" y="497.1">Compute SDF</tspan><tspan x="-35.44" y="745.66">Export Graphs</tspan></text><path class="cls-4" d="M3871.92,1039.35c0,6.08-4.56,11-10.19,11h-504.4c-5.62,0-10.19-4.94-10.19-11V962.59c0-6.09,4.57-11,10.19-11h504.4c5.63,0,10.19,4.93,10.19,11Z"/><path class="cls-4" d="M2632.9,787.09c0,6.09-4.56,11-10.19,11h-504.4c-5.63,0-10.19-4.94-10.19-11V710.34c0-6.09,4.56-11,10.19-11h504.4c5.63,0,10.19,4.94,10.19,11Z"/><path class="cls-4" d="M2632.9,1040.25c0,6.08-4.56,11-10.19,11h-504.4c-5.63,0-10.19-4.94-10.19-11V963.49c0-6.09,4.56-11,10.19-11h504.4c5.63,0,10.19,4.93,10.19,11Z"/><path class="cls-4" d="M2632.9,1281.43c0,6.09-4.56,11-10.19,11h-504.4c-5.63,0-10.19-4.94-10.19-11v-76.75c0-6.09,4.56-11,10.19-11h504.4c5.63,0,10.19,4.93,10.19,11Z"/><path class="cls-4" d="M2632.9,1529.06c0,6.09-4.56,11-10.19,11h-504.4c-5.63,0-10.19-4.94-10.19-11v-76.75c0-6.09,4.56-11,10.19-11h504.4c5.63,0,10.19,4.93,10.19,11Z"/><text class="cls-3" transform="translate(860.65 1257.67)">Printing Parameters</text><path class="cls-4" d="M1439.87,1274.11c0,6.09-5.9,11-13.16,11H775.49c-7.27,0-13.16-4.93-13.16-11v-76.76c0-6.09,5.89-11,13.16-11h651.22c7.26,0,13.16,4.93,13.16,11Z"/><text class="cls-3" transform="translate(812.61 1011.69)">Scalar Field Parameters</text><path class="cls-4" d="M1439.86,1028.12c0,6.09-5.89,11-13.16,11H775.49c-7.27,0-13.16-4.94-13.16-11V951.37c0-6.09,5.89-11,13.16-11H1426.7c7.27,0,13.16,4.93,13.16,11Z"/><line class="cls-6" x1="2920.38" y1="1490.81" x2="2920.38" y2="1488.31"/><line class="cls-7" x1="2920.38" y1="1483.32" x2="2920.38" y2="1106.41"/><polyline class="cls-6" points="2920.39 1103.91 2920.39 1101.41 2922.89 1101.41"/><line class="cls-8" x1="2927.96" y1="1101.41" x2="3270.2" y2="1101.41"/><line class="cls-6" x1="3272.73" y1="1101.41" x2="3275.23" y2="1101.41"/><polygon class="cls-9" points="3265.29 1113.68 3263.24 1111.49 3274.08 1101.42 3263.24 1091.35 3265.29 1089.15 3278.48 1101.42 3265.29 1113.68"/><line class="cls-10" x1="2370.51" y1="797.63" x2="2370.51" y2="947.84"/><polygon class="cls-11" points="2360.69 939.89 2362.45 938.25 2370.51 946.92 2378.56 938.25 2380.32 939.89 2370.51 950.44 2360.69 939.89"/><line class="cls-10" x1="2370.51" y1="1049.86" x2="2370.51" y2="1189.95"/><polygon class="cls-11" points="2360.69 1181.99 2362.45 1180.36 2370.51 1189.03 2378.56 1180.36 2380.32 1181.99 2370.51 1192.55 2360.69 1181.99"/><line class="cls-10" x1="2370.51" y1="1291.97" x2="2370.51" y2="1433.9"/><polygon class="cls-11" points="2360.69 1425.94 2362.45 1424.31 2370.51 1432.98 2378.56 1424.31 2380.32 1425.94 2370.51 1436.5 2360.69 1425.94"/><line class="cls-12" x1="2633.63" y1="1490.35" x2="2919.92" y2="1490.35"/><polygon class="cls-13" points="3023.5 1021.5 3150.49 1021.5 3150.49 1155.69 3115.77 1180.46 3023.5 1180.46 3023.5 1021.5"/><text class="cls-14" transform="translate(3036.67 1112.17)">.json</text><polyline class="cls-15" points="3115.77 1180.46 3115.77 1155.69 3141.4 1155.69 3150.49 1155.69"/><text class="cls-3" transform="translate(3455.12 1016.11)">Print Graphs<tspan class="cls-16" x="-0.59" y="248.55">T</tspan><tspan x="34.38" y="248.55">rim Graphs</tspan></text><text class="cls-17" transform="translate(2000.44 858.04)">Compute Print Block</text><path class="cls-4" d="M3871.92,1284.1c0,6.08-4.56,11-10.19,11h-504.4c-5.62,0-10.19-4.94-10.19-11v-76.76c0-6.09,4.57-11,10.19-11h504.4c5.63,0,10.19,4.93,10.19,11Z"/><rect class="cls-18" x="3290.1" y="867.59" width="638.87" height="502.63" rx="27.45"/><line class="cls-6" x1="1772.94" y1="987.24" x2="1772.94" y2="984.74"/><line class="cls-19" x1="1772.94" y1="979.65" x2="1772.94" y2="758.28"/><polyline class="cls-6" points="1772.94 755.74 1772.94 753.24 1775.44 753.24"/><line class="cls-20" x1="1780.44" y1="753.24" x2="2097.69" y2="753.24"/><line class="cls-6" x1="2100.19" y1="753.24" x2="2102.69" y2="753.24"/><polygon class="cls-9" points="2092.75 765.51 2090.7 763.31 2101.54 753.24 2090.7 743.17 2092.75 740.97 2105.94 753.24 2092.75 765.51"/><line class="cls-12" x1="1441.45" y1="987.25" x2="1773.44" y2="987.73"/><line class="cls-6" x1="1934.94" y1="1239.57" x2="1934.94" y2="1237.07"/><line class="cls-19" x1="1934.94" y1="1231.98" x2="1934.94" y2="1010.61"/><polyline class="cls-6" points="1934.94 1008.07 1934.94 1005.57 1937.44 1005.57"/><line class="cls-21" x1="1942.39" y1="1005.57" x2="2098.09" y2="1005.57"/><line class="cls-6" x1="2100.56" y1="1005.57" x2="2103.06" y2="1005.57"/><polygon class="cls-9" points="2093.12 1017.84 2091.07 1015.64 2101.91 1005.57 2091.07 995.5 2093.12 993.3 2106.32 1005.57 2093.12 1017.84"/><line class="cls-12" x1="1441.83" y1="1239.59" x2="1935.44" y2="1239.74"/><line class="cls-12" x1="1439.69" y1="753.1" x2="1771.68" y2="753.58"/><polygon class="cls-13" points="1548.04 675.24 1675.02 675.24 1675.02 809.42 1640.3 834.19 1548.04 834.19 1548.04 675.24"/><text class="cls-14" transform="translate(1561.21 765.9)">.json</text><polyline class="cls-15" points="1640.3 834.19 1640.3 809.42 1665.93 809.42 1675.02 809.42"/></svg>