<svg id="Layer_1" data-name="Layer 1" xmlns="http://www.w3.org/2000/svg" viewBox="0 0 4535.43 1417.32"><defs><style>.cls-1,.cls-11,.cls-15,.cls-4{font-size:66px;}.cls-1,.cls-11,.cls-4{fill:#231f20;}.cls-1{font-family:TimesNewRomanPS-BoldItalicMT, Times New Roman;font-weight:700;font-style:italic;}.cls-2{letter-spacing:-0.09em;}.cls-12,.cls-13,.cls-14,.cls-3,.cls-7,.cls-8{fill:none;}.cls-3{stroke:#e40787;stroke-width:4px;}.cls-13,.cls-14,.cls-3,.cls-7{stroke-miterlimit:10;}.cls-15,.cls-4{font-family:TimesNewRomanPSMT, Times New Roman;}.cls-5{letter-spacing:-0.02em;}.cls-6{letter-spacing:-0.04em;}.cls-10,.cls-12,.cls-7{stroke:#414142;}.cls-7{stroke-width:2px;}.cls-8{stroke:#353535;}.cls-10,.cls-12,.cls-8{stroke-miterlimit:6;}.cls-13,.cls-14,.cls-8{stroke-width:3px;}.cls-9{fill:#353535;}.cls-10{fill:#fff;}.cls-11{font-family:AdobeSongStd-Light-GBpc-EUC-H, Adobe Song Std;}.cls-13,.cls-14{stroke:#050505;}.cls-14{stroke-dasharray:15.11 15.11;}.cls-15{fill:#a9a8a9;}</style></defs><text class="cls-1" transform="translate(602.48 1236.8)">Inputs<tspan x="49.58" y="79.2">(a)</tspan></text><text class="cls-1" transform="translate(3953.28 1236.8)">Output<tspan x="56.9" y="79.2">(d)</tspan></text><text class="cls-1" transform="translate(1882.35 1236.8)">z<tspan class="cls-2" x="25.68" y="0">T</tspan><tspan x="59.94" y="0">sSDFSlicer</tspan><tspan x="147.36" y="79.2">(b)</tspan></text><rect class="cls-3" x="1774.78" y="254.95" width="594.12" height="666" rx="27.45"/><text class="cls-4" transform="translate(1847.78 403.62)">Compute Frames<tspan x="0" y="414.25">Compute SDF</tspan></text><text class="cls-4" transform="translate(399.39 570.09)">Print Height Domain<tspan x="0" y="79.2">Print Layer</tspan><tspan class="cls-5" x="298.74" y="79.2"> </tspan><tspan class="cls-6" x="314.05" y="79.2">W</tspan><tspan x="373.7" y="79.2">idth</tspan></text><path class="cls-7" d="M1022.41,654.49c0,10.9-5.89,19.74-13.16,19.74H358c-7.27,0-13.16-8.84-13.16-19.74V517c0-10.91,5.89-19.75,13.16-19.75h651.21c7.27,0,13.16,8.84,13.16,19.75Z"/><line class="cls-8" x1="2071.84" y1="447.95" x2="2071.84" y2="733.35"/><polygon class="cls-9" points="2062.02 725.4 2063.78 723.76 2071.84 732.43 2079.89 723.76 2081.65 725.4 2071.84 735.95 2062.02 725.4"/><polygon class="cls-10" points="866.64 191.85 1020.65 191.85 1020.65 366.68 978.54 398.95 866.64 398.95 866.64 191.85"/><text class="cls-11" transform="translate(882.61 309.98) scale(0.93 1)">.json</text><polyline class="cls-12" points="978.54 398.95 978.54 366.68 1009.63 366.68 1020.65 366.68"/><line class="cls-13" x1="1146.18" y1="106.36" x2="1146.18" y2="113.86"/><line class="cls-14" x1="1146.18" y1="128.97" x2="1146.18" y2="1088.28"/><line class="cls-13" x1="1146.18" y1="1095.83" x2="1146.18" y2="1103.33"/><line class="cls-13" x1="3854.18" y1="122.36" x2="3854.18" y2="129.86"/><line class="cls-14" x1="3854.18" y1="144.97" x2="3854.18" y2="1104.28"/><line class="cls-13" x1="3854.18" y1="1111.83" x2="3854.18" y2="1119.33"/><text class="cls-4" transform="translate(1326.49 327.86)">Geometry</text><text class="cls-4" transform="translate(1284.11 886.31)">Scalar Field</text><text class="cls-4" transform="translate(399 855.89)">Field Bounds<tspan x="0" y="79.2">Field Resolution</tspan></text><path class="cls-7" d="M1020,939.29c0,10.9-5.9,19.74-13.16,19.74H355.6c-7.27,0-13.16-8.84-13.16-19.74V801.82c0-10.91,5.89-19.74,13.16-19.74h651.22c7.26,0,13.16,8.83,13.16,19.74Z"/><text class="cls-1" transform="translate(3247.88 1236.8)">Post Processing<tspan x="178.79" y="79.2">(c)</tspan></text><polygon class="cls-10" points="3970.42 478.59 4124.44 478.59 4124.44 653.42 4082.33 685.7 3970.42 685.7 3970.42 478.59"/><text class="cls-11" transform="translate(3986.4 596.72) scale(0.93 1)">.json</text><polyline class="cls-12" points="4082.33 685.7 4082.33 653.42 4113.41 653.42 4124.44 653.42"/><line class="cls-8" x1="1677.28" y1="305.08" x2="1755.68" y2="305.08"/><polygon class="cls-9" points="1747.73 314.89 1746.09 313.14 1754.76 305.08 1746.09 297.02 1747.73 295.27 1758.28 305.08 1747.73 314.89"/><line class="cls-8" x1="1676.91" y1="863.37" x2="1755.68" y2="863.37"/><polygon class="cls-9" points="1747.73 873.19 1746.09 871.43 1754.76 863.38 1746.09 855.32 1747.73 853.56 1758.28 863.38 1747.73 873.19"/><line class="cls-8" x1="1056" y1="586.08" x2="1197.4" y2="586.08"/><polygon class="cls-9" points="1189.44 595.89 1187.81 594.14 1196.48 586.08 1187.81 578.02 1189.44 576.27 1200 586.08 1189.44 595.89"/><line class="cls-8" x1="2396.28" y1="582.15" x2="2528.68" y2="582.15"/><polygon class="cls-9" points="2520.73 591.96 2519.09 590.2 2527.76 582.15 2519.09 574.09 2520.73 572.33 2531.28 582.15 2520.73 591.96"/><text class="cls-4" transform="translate(3151.91 603.43)">Print Path Generation</text><text class="cls-4" transform="translate(2572.84 607.43)">Profile Curves</text><line class="cls-8" x1="3000" y1="582.15" x2="3114.4" y2="582.15"/><polygon class="cls-9" points="3106.45 591.96 3104.81 590.2 3113.48 582.15 3104.81 574.09 3106.45 572.33 3117 582.15 3106.45 591.96"/><line class="cls-8" x1="3755.28" y1="582.15" x2="3950.68" y2="582.15"/><polygon class="cls-9" points="3942.73 591.96 3941.09 590.2 3949.76 582.15 3941.09 574.09 3942.73 572.33 3953.28 582.15 3942.73 591.96"/><line class="cls-8" x1="1047" y1="304.39" x2="1197.4" y2="304.39"/><polygon class="cls-9" points="1189.44 314.2 1187.81 312.45 1196.48 304.39 1187.81 296.33 1189.44 294.58 1200 304.39 1189.44 314.2"/><line class="cls-8" x1="1058.28" y1="863.37" x2="1197.4" y2="863.37"/><polygon class="cls-9" points="1189.44 873.19 1187.81 871.43 1196.48 863.38 1187.81 855.32 1189.44 853.56 1200 863.38 1189.44 873.19"/><text class="cls-15" transform="translate(1327.32 224.64)">zObjMesh</text><text class="cls-15" transform="translate(1183.99 791.64)">zFnMeshScalarField</text><text class="cls-15" transform="translate(2550.02 502.11)">zObjGraphArray</text><path class="cls-7" d="M2334,426.94c0,6.61-4.54,12-10.14,12H1822c-5.6,0-10.14-5.37-10.14-12V343.56c0-6.61,4.54-12,10.14-12h501.86c5.6,0,10.14,5.36,10.14,12Z"/><path class="cls-7" d="M2334.47,841c0,6.62-4.54,12-10.14,12H1822.47c-5.6,0-10.14-5.36-10.14-12V757.6c0-6.61,4.54-12,10.14-12h501.86c5.6,0,10.14,5.36,10.14,12Z"/><path class="cls-7" d="M2991,626c0,6.62-3.91,12-8.73,12h-432.2c-4.83,0-8.74-5.36-8.74-12V542.6c0-6.61,3.91-12,8.74-12h432.2c4.82,0,8.73,5.36,8.73,12Z"/><path class="cls-7" d="M3747,625.85a12,12,0,0,1-12.06,12H3138.33a12,12,0,0,1-12.06-12V542.48a12,12,0,0,1,12.06-12h596.61a12,12,0,0,1,12.06,12Z"/><path class="cls-7" d="M1701.49,346.49c0,6.62-4.07,12-9.09,12H1242.57c-5,0-9.08-5.36-9.08-12V263.11c0-6.61,4.06-12,9.08-12H1692.4c5,0,9.09,5.36,9.09,12Z"/><path class="cls-7" d="M1697,905.06c0,6.61-4,12-8.92,12H1246.9c-4.92,0-8.91-5.37-8.91-12V821.68c0-6.61,4-12,8.91-12h441.17c4.92,0,8.92,5.36,8.92,12Z"/><text class="cls-15" transform="translate(1946.76 997.13)">GPU/CPU</text><text class="cls-4" transform="translate(1253.5 609.53)">Print Parameters</text><path class="cls-7" d="M1701.49,625.45c0,6.61-4.07,12-9.09,12H1242.57c-5,0-9.08-5.37-9.08-12V542.07c0-6.61,4.06-12,9.08-12H1692.4c5,0,9.09,5.36,9.09,12Z"/><text class="cls-15" transform="translate(1217.71 513.13)">zDomainFloat/float</text></svg>